<?xml version="1.0" encoding="UTF-8"?>
<svg width="205px" height="26px" viewBox="0 0 205 26" version="1.1" xmlns="http://www.w3.org/2000/svg" xmlns:xlink="http://www.w3.org/1999/xlink">
    <!-- Generator: Sketch 47.1 (45422) - http://www.bohemiancoding.com/sketch -->
    <title>Logo Blue</title>
    <desc>Created with Sketch.</desc>
    <defs>
        <polygon id="path-1" points="0 25 204.879 25 204.879 0.113 0 0.113"></polygon>
    </defs>
    <g id="Page-1" stroke="none" stroke-width="1" fill="none" fill-rule="evenodd">
        <g id="Desktop-HD-Copy-3" transform="translate(-250.000000, -32.000000)">
            <g id="Logo-Blue" transform="translate(250.000000, 31.750000)">
                <polygon id="Fill-1" fill="#385C9D" points="17.56035 0.50985 17.56035 6.36285 20.47735 6.36285 20.47735 3.42685 24.14585 3.42685 24.14585 16.60635 22.68235 16.60635 22.68235 19.53335 27.06235 19.53335 27.06235 3.42685 30.73035 3.42685 30.73035 4.89035 33.65735 4.89035 33.65735 0.50985"></polygon>
                <g id="Group-28" transform="translate(0.000000, 0.386750)">
                    <path d="M35.85225,8.90315 C34.34975,8.90315 33.06175,9.80065 32.49625,11.09815 L39.19825,11.09815 C38.64225,9.80065 37.34475,8.90315 35.85225,8.90315 Z M29.26725,12.56115 C29.26725,8.92265 32.21325,5.97615 35.85225,5.97615 C39.48125,5.97615 42.43725,8.92265 42.43725,12.56115 C42.43725,13.05915 42.37875,13.54665 42.27125,14.02465 L32.49625,14.02465 C33.06175,15.31265 34.34975,16.21965 35.85225,16.21965 C36.61325,16.21965 37.32525,15.97615 37.91075,15.57615 L40.51525,17.19515 C39.32525,18.39515 37.67625,19.14665 35.85225,19.14665 C32.21325,19.14665 29.26725,16.19065 29.26725,12.56115 Z" id="Fill-2" fill="#385C9D"></path>
                    <path d="M70.9726,19.1466 L70.9726,3.0401 L69.5091,3.0401 L69.5091,0.1231 L73.8996,0.1231 L73.8996,6.4741 L73.8996,6.4641 C74.5626,6.1521 75.3041,5.9766 76.0946,5.9766 C78.9236,5.9766 81.2161,8.2691 81.2161,11.0981 L81.2161,19.1466 L78.2896,19.1466 L78.2896,11.0981 C78.2896,9.8786 77.3041,8.9031 76.0946,8.9031 C74.8846,8.9031 73.8996,9.8786 73.8996,11.0981 L73.8996,19.1466 L70.9726,19.1466 Z" id="Fill-4" fill="#385C9D"></path>
                    <path d="M89.26455,8.90315 C87.76205,8.90315 86.47405,9.80065 85.90855,11.09815 L92.62055,11.09815 C92.05455,9.80065 90.76705,8.90315 89.26455,8.90315 M82.67955,12.56115 C82.67955,8.92265 85.62555,5.97615 89.26455,5.97615 C92.90355,5.97615 95.84955,8.92265 95.84955,12.56115 C95.84955,13.05915 95.79105,13.54665 95.68355,14.02465 L85.90855,14.02465 C86.47405,15.31265 87.76205,16.21965 89.26455,16.21965 C90.03555,16.21965 90.73755,15.97615 91.33255,15.57615 L93.92755,17.19515 C92.73755,18.39515 91.08855,19.14665 89.26455,19.14665 C85.62555,19.14665 82.67955,16.19065 82.67955,12.56115" id="Fill-6" fill="#385C9D"></path>
                    <path d="M97.3129,19.1466 L97.3129,8.9031 L95.8494,8.9031 L95.8494,5.9766 L100.2399,5.9766 L100.2399,7.0786 C101.2834,6.3761 102.5419,5.9766 103.8979,5.9766 L104.6299,5.9766 L104.6299,8.9031 L103.8979,8.9031 C101.8784,8.9031 100.2399,10.5421 100.2399,12.5521 L100.2399,19.1466 L97.3129,19.1466 Z" id="Fill-8" fill="#385C9D"></path>
                    <path d="M53.071,15.1468 C54.4955,13.7128 54.4955,11.4003 53.071,9.9663 C51.6465,8.5423 49.3245,8.5423 47.9005,9.9663 C46.4665,11.4003 46.4665,13.7128 47.9005,15.1468 C49.3245,16.5713 51.6465,16.5713 53.071,15.1468 M45.8225,17.2148 C43.257,14.6393 43.257,10.4738 45.8225,7.8983 C48.086,5.6448 51.5785,5.3618 54.144,7.0788 L54.144,5.9763 L57.071,5.9763 L57.071,19.1468 L54.144,19.1468 L54.144,18.0343 C51.5785,19.7513 48.086,19.4783 45.8225,17.2148" id="Fill-10" fill="#385C9D"></path>
                    <path d="M138.9892,8.93245 C136.9892,6.93245 133.7407,6.93245 131.7407,8.93245 C130.9312,9.75195 130.4432,10.76645 130.2972,11.82995 L140.4332,11.82995 C140.2772,10.76645 139.7992,9.75195 138.9892,8.93245 M130.7067,17.21495 C128.1312,14.64945 128.1312,10.47395 130.7067,7.89845 C133.2722,5.33245 137.4477,5.33245 140.0232,7.89845 C141.4867,9.37145 142.1207,11.37095 141.9062,13.29295 L141.1452,13.29295 L141.1452,13.28345 L130.2972,13.28345 C130.4432,14.34695 130.9312,15.37095 131.7407,16.18095 C133.7407,18.18095 136.9892,18.18095 138.9892,16.18095 C139.4772,15.69295 139.8382,15.12745 140.0917,14.53195 L141.5162,14.89295 L141.5257,14.89295 C141.2037,15.74195 140.6967,16.53195 140.0232,17.21495 C137.4477,19.79045 133.2722,19.79045 130.7067,17.21495" id="Fill-12" fill="#385C9D"></path>
                    <path d="M191.66985,8.93245 C189.66985,6.93245 186.42135,6.93245 184.42135,8.93245 C183.61185,9.75195 183.12385,10.76645 182.97785,11.82995 L193.11385,11.82995 C192.96735,10.76645 192.47985,9.75195 191.66985,8.93245 M183.38735,17.21495 C180.82185,14.64945 180.82185,10.47395 183.38735,7.89845 C185.96285,5.33245 190.12835,5.33245 192.70385,7.89845 C194.17735,9.37145 194.80135,11.37095 194.58685,13.29295 L193.83585,13.29295 L193.82585,13.28345 L182.97785,13.28345 C183.12385,14.34695 183.61185,15.37095 184.42135,16.18095 C186.42135,18.18095 189.66985,18.18095 191.66985,16.18095 C192.15785,15.69295 192.52835,15.12745 192.77235,14.53195 L194.20635,14.89295 C193.88435,15.74195 193.38685,16.53195 192.70385,17.21495 C190.12835,19.79045 185.96285,19.79045 183.38735,17.21495" id="Fill-14" fill="#385C9D"></path>
                    <polygon id="Fill-16" fill="#385C9D" points="177.07535 19.1368 177.07535 7.4298 175.61185 7.4298 175.61185 5.9763 177.07535 5.9763 177.07535 4.5033 178.52885 4.5033 178.52885 5.9763 179.99235 5.9763 179.99235 7.4298 178.52885 7.4298 178.52885 17.6833 179.99235 17.6833 179.99235 19.1368"></polygon>
                    <path d="M163.89545,19.1466 L163.89545,14.3176 L165.35895,14.3176 L165.41745,15.0201 C165.46645,15.3226 165.53445,15.5856 165.63195,15.8201 C165.81745,16.2686 166.09045,16.6586 166.44195,16.9806 C167.17345,17.6151 168.14895,17.9176 169.32945,17.9176 C170.68545,17.8201 171.87545,17.4786 172.54895,16.2881 L172.57795,16.2196 C172.67595,15.9761 172.71495,15.7321 172.71495,15.4981 C172.71495,15.1466 172.65595,14.8246 172.52945,14.5711 C172.41245,14.3271 172.22695,14.1226 171.98295,13.9471 C171.45645,13.5661 170.45145,13.2831 169.06595,13.0591 C167.49545,12.8051 166.38345,12.4151 165.68095,11.9276 C164.98845,11.4296 164.60745,10.6491 164.60745,9.5081 C164.60745,8.4056 165.00795,7.5566 165.81745,6.9326 C166.59795,6.2986 167.56345,5.9766 168.73445,5.9766 C169.30045,5.9766 169.82695,6.0546 170.30495,6.2006 C171.24145,6.4836 171.64145,6.7666 171.94395,7.1371 L171.94395,6.7081 L173.40745,6.7081 L173.40745,10.3566 L171.94395,10.3566 L171.94395,9.1666 C171.94395,8.8251 171.52445,8.3861 171.19295,8.1131 C170.54895,7.5471 169.72945,7.2741 168.76345,7.2741 C167.95395,7.2741 167.28095,7.4791 166.76345,7.9376 C166.29545,8.3566 166.06145,8.8741 166.06145,9.4591 C166.06145,9.6251 166.07095,9.7716 166.10045,9.9176 C166.23695,10.5126 166.67595,10.8741 167.17345,11.0886 C167.66145,11.3031 168.42195,11.4691 169.43695,11.6446 C170.37345,11.8106 171.17345,12.0056 171.81695,12.2301 C172.46095,12.4346 172.91945,12.7081 173.24145,13.0006 C173.82695,13.5661 174.13895,14.3466 174.13895,15.3711 C174.13895,16.5421 173.68995,17.4491 172.77295,18.1321 C171.91495,18.7951 170.73445,19.1466 169.20245,19.1466 C167.81745,19.0101 166.47095,18.7951 165.35895,17.8586 L165.35895,19.1366 L165.32945,19.1366 L165.32945,19.1466 L163.89545,19.1466 Z" id="Fill-18" fill="#385C9D"></path>
                    <mask id="mask-2" fill="white">
                        <use xlink:href="#path-1"></use>
                    </mask>
                    <g id="Clip-21"></g>
                    <path d="M159.5055,5.967 L160.969,5.967 L160.969,4.5035 L159.5055,4.5035 L159.5055,5.967 Z M159.5055,19.137 L159.5055,8.8935 L158.042,8.8935 L158.042,7.44 L160.969,7.44 L160.969,17.683 L162.432,17.683 L162.432,19.137 L159.5055,19.137 Z" id="Fill-20" fill="#385C9D" mask="url(#mask-2)"></path>
                    <path d="M60.456,17.21495 C57.8905,14.63945 57.8905,10.47395 60.456,7.89845 C63.0315,5.33245 67.207,5.33245 69.7725,7.89845 L69.802,7.92745 L67.1875,9.54695 L67.197,9.54695 C65.773,8.56145 63.802,8.69845 62.534,9.96645 C61.1,11.40045 61.1,13.71295 62.534,15.14695 C63.802,16.41495 65.773,16.55145 67.197,15.57595 L69.802,17.19545 C69.792,17.19545 69.7825,17.20495 69.7725,17.21495 C67.207,19.78045 63.0315,19.78045 60.456,17.21495" id="Fill-22" fill="#385C9D" mask="url(#mask-2)"></path>
                    <path d="M105.3615,19.1466 L105.3615,15.4881 L105.3615,14.7566 L107.976,14.7566 L108.0245,14.9906 C108.054,15.0786 108.083,15.1666 108.1125,15.2441 C108.249,15.5371 108.3955,15.8491 108.649,16.0441 C109.137,16.4831 109.8295,16.7271 110.7565,16.7271 C111.01,16.7271 111.254,16.6981 111.478,16.6491 L112.112,16.4441 L112.493,16.2296 L112.7565,15.9856 L113,15.6051 C113.0585,15.4686 113.078,15.3321 113.078,15.2051 C113.078,14.9421 113.039,14.7761 112.9805,14.6686 C112.932,14.5516 112.844,14.4446 112.7075,14.3466 C112.3755,14.1031 111.644,13.8591 110.4245,13.6541 C109.01,13.4201 107.927,13.0591 107.1955,12.5226 C106.376,11.9371 105.986,11.0106 105.986,9.8201 C105.986,8.6301 106.415,7.6741 107.2835,6.9811 C108.083,6.2986 109.0785,5.9766 110.239,5.9766 C110.7855,5.9766 111.3125,6.0546 111.8,6.2106 C112.1515,6.3181 112.444,6.4446 112.678,6.5616 L112.678,6.5716 L112.678,5.9766 L115.605,5.9766 L115.605,6.7081 L112.922,6.7081 L115.605,6.7081 L115.605,11.0981 L112.678,11.0981 L112.678,10.4056 C112.6195,10.1226 112.532,9.9176 112.4345,9.7226 C112.3365,9.4591 112.1805,9.2346 111.966,9.0591 C111.537,8.6691 110.971,8.4641 110.2585,8.4641 C109.6635,8.4641 109.2345,8.6201 108.932,8.8836 C108.659,9.1571 108.532,9.4396 108.532,9.7716 L108.5515,10.0446 L108.61,10.2301 L108.8245,10.4931 L109.127,10.6301 L109.4295,10.7371 C109.7905,10.8546 110.298,10.9711 110.9515,11.0886 C111.81,11.2446 112.532,11.4296 113.1365,11.6346 C113.7515,11.8491 114.249,12.1226 114.6195,12.4836 C115.283,13.1371 115.605,14.0246 115.605,15.0881 C115.605,16.3466 115.117,17.3611 114.161,18.0931 C113.2635,18.8051 112.0735,19.1466 110.6395,19.1466 C110.239,19.1466 109.859,19.1076 109.488,19.0296 L109.449,19.0296 L108.288,18.6296 L108.288,19.1466 L105.3615,19.1466 Z" id="Fill-23" fill="#385C9D" mask="url(#mask-2)"></path>
                    <path d="M126.02385,9.0787 C127.74085,7.3617 127.74085,4.5812 126.02385,2.8642 C125.16535,2.0157 124.04385,1.5862 122.92135,1.5862 L118.53185,1.5767 L118.53185,10.3667 L122.92135,10.3667 C124.04385,10.3667 125.17535,9.9372 126.02385,9.0787 L126.02385,9.0787 Z M117.06835,19.1367 L117.06835,1.5767 L115.60485,1.5767 L115.60485,0.1132 L122.92135,0.1227 C124.42385,0.1227 125.91685,0.6887 127.05785,1.8302 C129.35035,4.1132 129.35035,7.8297 127.05785,10.1127 C126.51185,10.6592 125.88735,11.0787 125.21435,11.3612 L128.04335,19.1367 L126.57985,19.1367 L123.89735,11.7422 C123.57535,11.8007 123.24335,11.8297 122.92135,11.8297 L118.53185,11.8202 L118.53185,19.1367 L117.06835,19.1367 Z" id="Fill-24" fill="#385C9D" mask="url(#mask-2)"></path>
                    <path d="M197.5624,19.1368 L197.5624,7.4298 L196.0989,7.4298 L196.0989,5.9763 L199.0259,5.9763 L199.0259,8.4153 C199.1624,8.2398 199.3184,8.0638 199.4844,7.8983 C200.7719,6.6203 202.4594,5.9763 204.1374,5.9763 L204.8789,5.9763 L204.8789,7.4298 L204.1374,7.4398 C202.8304,7.4398 201.5229,7.9373 200.5184,8.9323 C199.5234,9.9373 199.0259,11.2443 199.0259,12.5518 L199.0259,19.1368 L197.5624,19.1368 Z" id="Fill-25" fill="#385C9D" mask="url(#mask-2)"></path>
                    <path d="M153.62275,16.18075 C153.63275,16.17075 153.64225,16.16125 153.65225,16.14175 L153.65225,8.97125 C153.64225,8.96175 153.63275,8.95175 153.62275,8.93225 C151.62275,6.93225 148.37425,6.93225 146.37425,8.93225 C144.37425,10.93225 144.37425,14.18075 146.37425,16.18075 C148.37425,18.18075 151.62275,18.18075 153.62275,16.18075 M149.99375,25.00025 L149.99375,25.00025 L148.53025,25.00025 L148.53025,23.53675 L149.99375,23.53675 C150.93025,23.53675 151.86675,23.17575 152.58875,22.46325 C153.30075,21.75125 153.65225,20.81475 153.65225,19.87825 L153.65225,18.03475 C151.09625,19.75125 147.59375,19.47825 145.34025,17.21475 C142.76475,14.64925 142.76475,10.47375 145.34025,7.89825 C147.59375,5.64475 151.09625,5.37125 153.65225,7.07875 L153.65225,5.97625 L156.57875,5.97625 L156.57875,7.43025 L155.11525,7.43025 L155.11525,19.87825 C155.11525,21.18575 154.61775,22.49275 153.62275,23.49775 C152.61775,24.49275 151.31075,25.00025 149.99375,25.00025" id="Fill-26" fill="#385C9D" mask="url(#mask-2)"></path>
                    <path d="M-0.0001,17.67345 L-0.0001,1.57645 C-0.0001,0.77695 0.6634,0.11295 1.4634,0.11295 L16.0969,0.11295 L16.0969,3.03995 L2.9269,3.03995 L2.9269,5.96645 L5.8534,5.96645 L5.8534,14.01495 L7.3169,12.55195 L8.7804,14.01495 L8.7804,5.96645 L16.0969,5.96645 L16.0969,19.13695 L1.4634,19.13695 C0.6634,19.13695 -0.0001,18.48345 -0.0001,17.67345" id="Fill-27" fill="#E8453D" mask="url(#mask-2)"></path>
                </g>
            </g>
        </g>
    </g>
</svg>