<?xml version="1.0" encoding="UTF-8"?>
<svg width="451px" height="55px" viewBox="0 0 451 55" version="1.1" xmlns="http://www.w3.org/2000/svg" xmlns:xlink="http://www.w3.org/1999/xlink">
    <!-- Generator: Sketch 47.1 (45422) - http://www.bohemiancoding.com/sketch -->
    <title>Logo White</title>
    <desc>Created with Sketch.</desc>
    <defs>
        <polygon id="path-1" points="0 55.0000012 450.73381 55.0000012 450.73381 0.248600005 0 0.248600005"></polygon>
    </defs>
    <g id="Page-1" stroke="none" stroke-width="1" fill="none" fill-rule="evenodd">
        <g id="Desktop-HD-Copy-3" transform="translate(-739.000000, -285.000000)">
            <g id="Logo-White" transform="translate(738.999990, 283.899999)">
                <polygon id="Fill-1" fill="#FEFEFE" points="38.6327708 1.12167002 38.6327708 13.9982703 45.050171 13.9982703 45.050171 7.53907016 53.1208712 7.53907016 53.1208712 36.5350708 49.9011711 36.5350708 49.9011711 42.9744709 59.5371713 42.9744709 59.5371713 7.53907016 67.6067715 7.53907016 67.6067715 10.7587702 74.0461716 10.7587702 74.0461716 1.12167002"></polygon>
                <g id="Group-28" transform="translate(0.000000, 0.850850)">
                    <path d="M78.8749517,19.5867104 C75.5694516,19.5867104 72.7358516,21.5612105 71.4917515,24.4157105 L86.2361519,24.4157105 C85.0129518,21.5612105 82.1584518,19.5867104 78.8749517,19.5867104 Z M64.3879514,27.6354106 C64.3879514,19.6296104 70.8691515,13.1473103 78.8749517,13.1473103 C86.8587519,13.1473103 93.361952,19.6296104 93.361952,27.6354106 C93.361952,28.7299106 93.233252,29.8035106 92.996752,30.8551107 L71.4917515,30.8551107 C72.7358516,33.6876107 75.5694516,35.6841108 78.8749517,35.6841108 C80.5491517,35.6841108 82.1155518,35.1473108 83.4036518,34.2673107 L89.1335519,37.8302108 C86.5155519,40.4702109 82.8877518,42.1224109 78.8749517,42.1224109 C70.8691515,42.1224109 64.3879514,35.6192108 64.3879514,27.6354106 Z" id="Fill-2" fill="#FEFEFE"></path>
                    <path d="M156.139723,42.1227409 L156.139723,6.68844014 L152.920023,6.68844014 L152.920023,0.271040006 L162.579124,0.271040006 L162.579124,14.2421403 L162.579124,14.2212403 C164.037724,13.5348403 165.669024,13.1476403 167.408124,13.1476403 C173.631924,13.1476403 178.675424,18.1922404 178.675424,24.4160405 L178.675424,42.1227409 L172.237124,42.1227409 L172.237124,24.4160405 C172.237124,21.7331405 170.069024,19.5870404 167.408124,19.5870404 C164.746124,19.5870404 162.579124,21.7331405 162.579124,24.4160405 L162.579124,42.1227409 L156.139723,42.1227409 Z" id="Fill-4" fill="#FEFEFE"></path>
                    <path d="M196.382014,19.5867104 C193.076514,19.5867104 190.242914,21.5612105 188.998814,24.4157105 L203.765214,24.4157105 C202.520014,21.5612105 199.687514,19.5867104 196.382014,19.5867104 M181.895014,27.6354106 C181.895014,19.6296104 188.376214,13.1473103 196.382014,13.1473103 C204.387814,13.1473103 210.869015,19.6296104 210.869015,27.6354106 C210.869015,28.7299106 210.740315,29.8035106 210.503815,30.8551107 L188.998814,30.8551107 C190.242914,33.6876107 193.076514,35.6841108 196.382014,35.6841108 C198.078214,35.6841108 199.622614,35.1473108 200.931614,34.2673107 L206.640614,37.8302108 C204.022614,40.4702109 200.394814,42.1224109 196.382014,42.1224109 C188.376214,42.1224109 181.895014,35.6192108 181.895014,27.6354106" id="Fill-6" fill="#FEFEFE"></path>
                    <path d="M214.088385,42.1227409 L214.088385,19.5870404 L210.868685,19.5870404 L210.868685,13.1476403 L220.527785,13.1476403 L220.527785,15.5731403 C222.823485,14.0276403 225.592185,13.1476403 228.575385,13.1476403 L230.185785,13.1476403 L230.185785,19.5870404 L228.575385,19.5870404 C224.132485,19.5870404 220.527785,23.1928405 220.527785,27.6137406 L220.527785,42.1227409 L214.088385,42.1227409 Z" id="Fill-8" fill="#FEFEFE"></path>
                    <path d="M116.756203,33.3227407 C119.890103,30.1679407 119.890103,25.0815405 116.756203,21.9267405 C113.622302,18.7928404 108.513902,18.7928404 105.381102,21.9267405 C102.226302,25.0815405 102.226302,30.1679407 105.381102,33.3227407 C108.513902,36.4566408 113.622302,36.4566408 116.756203,33.3227407 M100.809502,37.8734408 C95.1654021,32.2062407 95.1654021,23.0421405 100.809502,17.3760404 C105.789202,12.4183403 113.472702,11.7957403 119.116803,15.5731403 L119.116803,13.1476403 L125.556203,13.1476403 L125.556203,42.1227409 L119.116803,42.1227409 L119.116803,39.6752409 C113.472702,43.4526409 105.789202,42.8520409 100.809502,37.8734408" id="Fill-10" fill="#FEFEFE"></path>
                    <path d="M305.776247,19.6511704 C301.376247,15.2511703 294.229546,15.2511703 289.829546,19.6511704 C288.048646,21.4540705 286.975046,23.6859705 286.653846,26.0256706 L308.953047,26.0256706 C308.609847,23.6859705 307.558247,21.4540705 305.776247,19.6511704 M287.554746,37.8726708 C281.888646,32.2285707 281.888646,23.0424705 287.554746,17.3763704 C293.198846,11.7311703 302.384947,11.7311703 308.051047,17.3763704 C311.270747,20.6169704 312.665547,25.0169705 312.193647,29.2453706 L310.519447,29.2453706 L310.519447,29.2233706 L286.653846,29.2233706 C286.975046,31.5630707 288.048646,33.8158707 289.829546,35.5978708 C294.229546,39.9978709 301.376247,39.9978709 305.776247,35.5978708 C306.849847,34.5242707 307.644047,33.2801707 308.201747,31.9711707 L311.335647,32.7642707 L311.356547,32.7642707 C310.648147,34.6320708 309.532747,36.3700708 308.051047,37.8726708 C302.384947,43.5387709 293.198846,43.5387709 287.554746,37.8726708" id="Fill-12" fill="#FEFEFE"></path>
                    <path d="M421.673679,19.6511704 C417.273679,15.2511703 410.126979,15.2511703 405.726979,19.6511704 C403.946079,21.4540705 402.872479,23.6859705 402.551279,26.0256706 L424.850479,26.0256706 C424.528179,23.6859705 423.455679,21.4540705 421.673679,19.6511704 M403.452179,37.8726708 C397.808079,32.2285707 397.808079,23.0424705 403.452179,17.3763704 C409.118279,11.7311703 418.282379,11.7311703 423.948479,17.3763704 C427.190179,20.6169704 428.562979,25.0169705 428.091079,29.2453706 L426.438879,29.2453706 L426.416879,29.2233706 L402.551279,29.2233706 C402.872479,31.5630707 403.946079,33.8158707 405.726979,35.5978708 C410.126979,39.9978709 417.273679,39.9978709 421.673679,35.5978708 C422.747279,34.5242707 423.562379,33.2801707 424.099179,31.9711707 L427.253979,32.7642707 C426.545579,34.6320708 425.451079,36.3700708 423.948479,37.8726708 C418.282379,43.5387709 409.118279,43.5387709 403.452179,37.8726708" id="Fill-14" fill="#FEFEFE"></path>
                    <polygon id="Fill-16" fill="#FEFEFE" points="389.565778 42.1012909 389.565778 16.3458904 386.346078 16.3458904 386.346078 13.1481903 389.565778 13.1481903 389.565778 9.90759021 392.763479 9.90759021 392.763479 13.1481903 395.983179 13.1481903 395.983179 16.3458904 392.763479 16.3458904 392.763479 38.9035908 395.983179 38.9035908 395.983179 42.1012909"></polygon>
                    <path d="M360.569998,42.1227409 L360.569998,31.4989407 L363.789698,31.4989407 L363.918398,33.0444407 C364.026198,33.7088407 364.175798,34.2885407 364.390298,34.8033408 C364.798398,35.7911408 365.398998,36.6491408 366.172298,37.3575408 C367.781598,38.7534408 369.927698,39.4189409 372.524798,39.4189409 C375.507998,39.2033408 378.125998,38.4520408 379.607698,35.8340408 L379.671498,35.6833408 C379.887098,35.1476408 379.972898,34.6108408 379.972898,34.0960407 C379.972898,33.3227407 379.843098,32.6143407 379.564798,32.0566407 C379.307398,31.5198407 378.899298,31.0688407 378.362498,30.6827407 C377.204198,29.8456406 374.993198,29.2230406 371.945098,28.7302406 C368.489998,28.1714406 366.043598,27.3134406 364.498098,26.2409406 C362.974598,25.1453405 362.136398,23.4282405 362.136398,20.9180405 C362.136398,18.4925404 363.017498,16.6247404 364.798398,15.2508403 C366.515498,13.8560403 368.639598,13.1476403 371.215798,13.1476403 C372.460998,13.1476403 373.619298,13.3192403 374.670898,13.6415403 C376.731198,14.2641403 377.611198,14.8867403 378.276698,15.7018403 L378.276698,14.7580403 L381.496398,14.7580403 L381.496398,22.7847405 L378.276698,22.7847405 L378.276698,20.1667404 C378.276698,19.4154404 377.353798,18.4496404 376.624498,17.8490404 C375.207698,16.6038404 373.404798,16.0021403 371.279598,16.0021403 C369.498698,16.0021403 368.018098,16.4531404 366.879598,17.4618404 C365.849998,18.3847404 365.335198,19.5221404 365.335198,20.8102405 C365.335198,21.1754405 365.356098,21.4966405 365.420998,21.8189405 C365.721298,23.1279405 366.687098,23.9221405 367.781598,24.3940405 C368.855198,24.8659405 370.528298,25.2322405 372.761298,25.6183406 C374.821598,25.9824406 376.581598,26.4114406 377.997298,26.9053406 C379.414098,27.3563406 380.422798,27.9569406 381.131198,28.6015406 C382.419298,29.8456406 383.105698,31.5627407 383.105698,33.8166407 C383.105698,36.3917408 382.117898,38.3882408 380.100498,39.8908409 C378.212898,41.3494409 375.615798,42.1227409 372.245398,42.1227409 C369.198398,41.8224409 366.236098,41.3494409 363.789698,39.2891409 L363.789698,42.1007409 L363.724798,42.1007409 L363.724798,42.1227409 L360.569998,42.1227409 Z" id="Fill-18" fill="#FEFEFE"></path>
                    <mask id="mask-2" fill="white">
                        <use xlink:href="#path-1"></use>
                    </mask>
                    <g id="Clip-21"></g>
                    <path d="M350.912108,13.1263003 L354.131808,13.1263003 L354.131808,9.90770021 L350.912108,9.90770021 L350.912108,13.1263003 Z M350.912108,42.1014009 L350.912108,19.5657004 L347.692408,19.5657004 L347.692408,16.3669004 L354.131808,16.3669004 L354.131808,38.9037008 L357.350408,38.9037008 L357.350408,42.1014009 L350.912108,42.1014009 Z" id="Fill-20" fill="#FEFEFE" mask="url(#mask-2)"></path>
                    <path d="M133.003203,37.8731108 C127.359103,32.2070107 127.359103,23.0429105 133.003203,17.3757104 C138.669303,11.7316103 147.855403,11.7316103 153.499503,17.3757104 L153.564403,17.4406104 L147.812503,21.0035105 L147.833403,21.0035105 C144.700603,18.8354104 140.364403,19.1357104 137.574803,21.9264105 C134.420003,25.0812105 134.420003,30.1676107 137.574803,33.3224107 C140.364403,36.1131108 144.700603,36.4134108 147.833403,34.2673107 L153.564403,37.8302108 C153.542403,37.8302108 153.521503,37.8511108 153.499503,37.8731108 C147.855403,43.5172109 138.669303,43.5172109 133.003203,37.8731108" id="Fill-22" fill="#FEFEFE" mask="url(#mask-2)"></path>
                    <path d="M231.795305,42.1227409 L231.795305,34.0740407 L231.795305,32.4647407 L237.547205,32.4647407 L237.653905,32.9795407 C237.718805,33.1720407 237.782605,33.3656407 237.847505,33.5372407 C238.147805,34.1818407 238.470105,34.8682408 239.027805,35.2972408 C240.101405,36.2630408 241.624905,36.7998408 243.664305,36.7998408 C244.222005,36.7998408 244.758805,36.7360408 245.251605,36.6282408 L246.646405,36.1772408 L247.484605,35.7053408 L248.064305,35.1685408 L248.600005,34.3314407 C248.728705,34.0311407 248.771605,33.7308407 248.771605,33.4514407 C248.771605,32.8717407 248.685805,32.5076407 248.557105,32.2711407 C248.450405,32.0137407 248.256805,31.7772407 247.956505,31.5627407 C247.226105,31.0270407 245.616805,30.4902407 242.933905,30.0392407 C239.822005,29.5233406 237.439405,28.7302406 235.830105,27.5488406 C234.027205,26.2618406 233.169205,24.2224405 233.169205,21.6044405 C233.169205,18.9853404 234.113005,16.8821404 236.023705,15.3586403 C237.782605,13.8560403 239.972705,13.1476403 242.525805,13.1476403 C243.728105,13.1476403 244.887505,13.3192403 245.960005,13.6624403 C246.733305,13.8989403 247.376805,14.1783403 247.891605,14.4357403 L247.891605,14.4577403 L247.891605,13.1476403 L254.331006,13.1476403 L254.331006,14.7580403 L248.428405,14.7580403 L254.331006,14.7580403 L254.331006,24.4160405 L247.891605,24.4160405 L247.891605,22.8925405 C247.762905,22.2699405 247.570405,21.8189405 247.355905,21.3899405 C247.140305,20.8102405 246.797105,20.3163404 246.325205,19.9302404 C245.381405,19.0711404 244.136205,18.6212404 242.568705,18.6212404 C241.259705,18.6212404 240.315905,18.9644404 239.650405,19.5441404 C239.049805,20.1447404 238.770405,20.7673405 238.770405,21.4966405 L238.813305,22.0972405 L238.942005,22.5053405 L239.413905,23.0850405 L240.079405,23.3853405 L240.744905,23.6218405 C241.539105,23.8792405 242.655605,24.1366405 244.093305,24.3940405 C245.982005,24.7372405 247.570405,25.1453405 248.900305,25.5963406 C250.253305,26.0682406 251.347805,26.6699406 252.162905,27.4630406 C253.622605,28.9018406 254.331006,30.8543407 254.331006,33.1940407 C254.331006,35.9627408 253.257405,38.1946408 251.154205,39.8050409 C249.179705,41.3714409 246.561705,42.1227409 243.406905,42.1227409 C242.525805,42.1227409 241.689805,42.0369409 240.873605,41.8653409 L240.787805,41.8653409 L238.233605,40.9853409 L238.233605,42.1227409 L231.795305,42.1227409 Z" id="Fill-23" fill="#FEFEFE" mask="url(#mask-2)"></path>
                    <path d="M277.252476,19.9729204 C281.029876,16.1955204 281.029876,10.0784202 277.252476,6.30102014 C275.363776,4.4343201 272.896476,3.49052008 270.426976,3.49052008 L260.770076,3.46852008 L260.770076,22.8065205 L270.426976,22.8065205 C272.896476,22.8065205 275.385776,21.8616205 277.252476,19.9729204 L277.252476,19.9729204 Z M257.550376,42.1016209 L257.550376,3.46852008 L254.330676,3.46852008 L254.330676,0.248820005 L270.426976,0.270820006 C273.732476,0.270820006 277.017076,1.51492003 279.527276,4.02622009 C284.570776,9.0488202 284.570776,17.2262204 279.527276,22.2477205 C278.326076,23.4500205 276.952176,24.3729205 275.471576,24.9955205 L281.695376,42.1016209 L278.475676,42.1016209 L272.574176,25.8326206 C271.865776,25.9613206 271.135376,26.0251206 270.426976,26.0251206 L260.770076,26.0042206 L260.770076,42.1016209 L257.550376,42.1016209 Z" id="Fill-24" fill="#FEFEFE" mask="url(#mask-2)"></path>
                    <path d="M434.637289,42.1012909 L434.637289,16.3458904 L431.417589,16.3458904 L431.417589,13.1481903 L437.856989,13.1481903 L437.856989,18.5139904 C438.157289,18.1278904 438.50049,17.7406904 438.86569,17.3754904 C441.69819,14.5649903 445.41069,13.1481903 449.10229,13.1481903 L450.73359,13.1481903 L450.73359,16.3458904 L449.10229,16.3667904 C446.22689,16.3667904 443.35039,17.4623904 441.14049,19.6513904 C438.95149,21.8623905 437.856989,24.7377905 437.856989,27.6142906 L437.856989,42.1012909 L434.637289,42.1012909 Z" id="Fill-25" fill="#FEFEFE" mask="url(#mask-2)"></path>
                    <path d="M337.970057,35.5979808 C337.992057,35.5759808 338.012957,35.5550808 338.034957,35.5121808 L338.034957,19.7370804 C338.012957,19.7161804 337.992057,19.6941804 337.970057,19.6512804 C333.570057,15.2512803 326.423357,15.2512803 322.023357,19.6512804 C317.623357,24.0512805 317.623357,31.1979807 322.023357,35.5979808 C326.423357,39.9979809 333.570057,39.9979809 337.970057,35.5979808 M329.986257,54.9997812 L329.986257,54.9997812 L326.766557,54.9997812 L326.766557,51.7800811 L329.986257,51.7800811 C332.046557,51.7800811 334.106857,50.9869811 335.695257,49.4194811 C337.261657,47.853081 338.034957,45.792781 338.034957,43.7324809 L338.034957,39.6756809 C332.411757,43.4530809 324.706257,42.8524809 319.748557,37.8727808 C314.082457,32.2286807 314.082457,23.0425805 319.748557,17.3764804 C324.706257,12.4187803 332.411757,11.8170803 338.034957,15.5735803 L338.034957,13.1480803 L344.473257,13.1480803 L344.473257,16.3457804 L341.253557,16.3457804 L341.253557,43.7324809 C341.253557,46.607881 340.159057,49.4843811 337.970057,51.6942811 C335.759057,53.8843812 332.883657,54.9997812 329.986257,54.9997812" id="Fill-26" fill="#FEFEFE" mask="url(#mask-2)"></path>
                    <path d="M-0.000220000005,38.8818108 L-0.000220000005,3.46841008 C-0.000220000005,1.70841004 1.45948003,0.248710005 3.21948007,0.248710005 L35.4131808,0.248710005 L35.4131808,6.68811014 L6.43918014,6.68811014 L6.43918014,13.1264103 L12.8774803,13.1264103 L12.8774803,30.8331107 L16.0971803,27.6134106 L19.3168804,30.8331107 L19.3168804,13.1264103 L35.4131808,13.1264103 L35.4131808,42.1015109 L3.21948007,42.1015109 C1.45948003,42.1015109 -0.000220000005,40.6627109 -0.000220000005,38.8818108" id="Fill-27" fill="#E8453D" mask="url(#mask-2)"></path>
                </g>
            </g>
        </g>
    </g>
</svg>