<?xml version="1.0" encoding="UTF-8"?>
<svg width="160px" height="162px" viewBox="0 0 160 162" version="1.1" xmlns="http://www.w3.org/2000/svg" xmlns:xlink="http://www.w3.org/1999/xlink">
    <!-- Generator: Sketch 47.1 (45422) - http://www.bohemiancoding.com/sketch -->
    <title>News</title>
    <desc>Created with Sketch.</desc>
    <defs>
        <circle id="path-1" cx="69.9648438" cy="70.6566782" r="69.9164377"></circle>
        <filter x="-7.5%" y="-7.5%" width="129.3%" height="130.0%" filterUnits="objectBoundingBox" id="filter-2">
            <feOffset dx="10" dy="11" in="SourceAlpha" result="shadowOffsetOuter1"></feOffset>
            <feGaussianBlur stdDeviation="5" in="shadowOffsetOuter1" result="shadowBlurOuter1"></feGaussianBlur>
            <feColorMatrix values="0 0 0 0 0   0 0 0 0 0   0 0 0 0 0  0 0 0 0.222769475 0" type="matrix" in="shadowBlurOuter1"></feColorMatrix>
        </filter>
        <polygon id="path-3" points="0 61.6597845 70.0928251 61.6597845 70.0928251 0 0 0"></polygon>
    </defs>
    <g id="Page-1" stroke="none" stroke-width="1" fill="none" fill-rule="evenodd">
        <g id="Desktop-HD-Copy-3" transform="translate(-412.000000, -1929.000000)">
            <g id="News" transform="translate(412.000000, 1929.000000)">
                <g id="Oval-Copy-2">
                    <use fill="black" fill-opacity="1" filter="url(#filter-2)" xlink:href="#path-1"></use>
                    <use fill="#FFFFFF" fill-rule="evenodd" xlink:href="#path-1"></use>
                </g>
                <g id="Page-1" transform="translate(37.614844, 39.506679)">
                    <path d="M67.6429089,8.93666265 C68.534849,8.93666265 69.264529,9.6664827 69.264529,10.5584228 L69.264529,54.3448259 C69.264529,57.9125862 66.3453888,60.8317264 62.7776285,60.8317264 L7.31480453,60.8317264 C3.74704427,60.8317264 0.82790406,57.9125862 0.82790406,54.3448259 L0.82790406,2.44976218 C0.82790406,1.55782211 1.55772411,0.82800206 2.44966418,0.82800206 L59.5791883,0.82800206 C60.4711284,0.82800206 61.2009484,1.55782211 61.2009484,2.44976218 L61.2009484,8.93666265 L67.6429089,8.93666265 Z" id="Fill-1" fill="#FFFFFF"></path>
                    <mask id="mask-4" fill="white">
                        <use xlink:href="#path-3"></use>
                    </mask>
                    <g id="Clip-4"></g>
                    <polygon id="Fill-3" fill="#D8E2ED" mask="url(#mask-4)" points="10.5583808 35.0462025 26.1269419 35.0462025 26.1269419 18.6669014 10.5583808 18.6669014"></polygon>
                    <path d="M10.5583108,51.9295038 C10.1017707,51.9295038 9.7302107,51.5580837 9.7302107,51.1014037 C9.7302107,50.6447237 10.1017707,50.2733036 10.5583108,50.2733036 L26.9376119,50.2733036 C27.394152,50.2733036 27.765712,50.6447237 27.765712,51.1014037 C27.765712,51.5580837 27.394152,51.9295038 26.9376119,51.9295038 L10.5583108,51.9295038 Z" id="Fill-5" fill="#385E9D" mask="url(#mask-4)"></path>
                    <path d="M35.0462865,51.9295038 C34.5897465,51.9295038 34.2181865,51.5580837 34.2181865,51.1014037 C34.2181865,50.6447237 34.5897465,50.2733036 35.0462865,50.2733036 L51.4255877,50.2733036 C51.8822678,50.2733036 52.2536878,50.6447237 52.2536878,51.1014037 C52.2536878,51.5580837 51.8822678,51.9295038 51.4255877,51.9295038 L35.0462865,51.9295038 Z" id="Fill-6" fill="#385E9D" mask="url(#mask-4)"></path>
                    <path d="M10.5583108,11.3864528 C10.1017707,11.3864528 9.7302107,11.0150328 9.7302107,10.5583528 C9.7302107,10.1018127 10.1017707,9.7303927 10.5583108,9.7303927 L51.4255737,9.7303927 C51.8822538,9.7303927 52.2536738,10.1018127 52.2538138,10.5584928 C52.2538138,11.0150328 51.8823938,11.3864528 51.4257137,11.3864528 L10.5583108,11.3864528 Z" id="Fill-7" fill="#385E9D" mask="url(#mask-4)"></path>
                    <path d="M35.0462865,19.4949734 C34.5897465,19.4949734 34.2181865,19.1235534 34.2181865,18.6668734 C34.2181865,18.2103333 34.5897465,17.8389133 35.0462865,17.8389133 L51.4255877,17.8389133 C51.8822678,17.8389133 52.2536878,18.2103333 52.2536878,18.6668734 C52.2536878,19.1235534 51.8822678,19.4949734 51.4255877,19.4949734 L35.0462865,19.4949734 Z" id="Fill-8" fill="#385E9D" mask="url(#mask-4)"></path>
                    <path d="M35.0462865,27.60362 C34.5897465,27.60362 34.2181865,27.2322 34.2181865,26.7755199 C34.2181865,26.3189799 34.5897465,25.9475599 35.0462865,25.9475599 L51.4255877,25.9475599 C51.8822678,25.9475599 52.2536878,26.3189799 52.2536878,26.7755199 C52.2536878,27.2322 51.8822678,27.60362 51.4255877,27.60362 L35.0462865,27.60362 Z" id="Fill-9" fill="#385E9D" mask="url(#mask-4)"></path>
                    <path d="M35.0462865,35.7123366 C34.5897465,35.7123366 34.2181865,35.3409166 34.2181865,34.8842365 C34.2181865,34.4275565 34.5897465,34.0561365 35.0462865,34.0561365 L51.4255877,34.0561365 C51.8822678,34.0561365 52.2536878,34.4275565 52.2536878,34.8842365 C52.2536878,35.3409166 51.8822678,35.7123366 51.4255877,35.7123366 L35.0462865,35.7123366 Z" id="Fill-10" fill="#385E9D" mask="url(#mask-4)"></path>
                    <path d="M35.0462865,43.8208572 C34.5897465,43.8208572 34.2181865,43.4494371 34.2181865,42.9927571 C34.2181865,42.5360771 34.5897465,42.1646571 35.0462865,42.1646571 L51.4255877,42.1646571 C51.8822678,42.1646571 52.2536878,42.5360771 52.2536878,42.9927571 C52.2536878,43.4494371 51.8822678,43.8208572 51.4255877,43.8208572 L35.0462865,43.8208572 Z" id="Fill-11" fill="#385E9D" mask="url(#mask-4)"></path>
                    <path d="M10.5583108,43.8208572 C10.1017707,43.8208572 9.7302107,43.4494371 9.7302107,42.9927571 C9.7302107,42.5360771 10.1017707,42.1646571 10.5583108,42.1646571 L26.9376119,42.1646571 C27.394152,42.1646571 27.765712,42.5360771 27.765712,42.9927571 C27.765712,43.4494371 27.394152,43.8208572 26.9376119,43.8208572 L10.5583108,43.8208572 Z" id="Fill-12" fill="#385E9D" mask="url(#mask-4)"></path>
                    <path d="M11.3863408,34.2182425 L26.1097219,34.2182425 L26.1097219,19.4948614 L11.3863408,19.4948614 L11.3863408,34.2182425 Z M10.5583808,35.8743026 C10.1017007,35.8743026 9.7302807,35.5028826 9.7302807,35.0462025 L9.7302807,18.6669014 C9.7302807,18.2103613 10.1017007,17.8389413 10.5583808,17.8389413 L26.9376819,17.8389413 C27.394222,17.8389413 27.765642,18.2103613 27.765642,18.6669014 L27.765642,35.0462025 C27.765642,35.5028826 27.394222,35.8743026 26.9376819,35.8743026 L10.5583808,35.8743026 Z" id="Fill-13" fill="#385E9D" mask="url(#mask-4)"></path>
                    <path d="M1.65607412,54.3447839 C1.65607412,57.4651042 4.1946943,60.0035843 7.31487453,60.0035843 L62.7776985,60.0035843 C65.8981588,60.0035843 68.436499,57.4651042 68.436499,54.3447839 L68.436499,9.76472071 L61.9841785,9.76472071 L61.9841785,51.9120038 C61.9841785,52.7966638 62.7039185,53.5165439 63.5885786,53.5165439 C64.0452586,53.5165439 64.4168187,53.8879639 64.4168187,54.3446439 C64.4168187,54.801324 64.0452586,55.172744 63.5885786,55.172744 C61.7908385,55.172744 60.3279784,53.7100239 60.3279784,51.9121438 L60.3279784,1.65592012 L1.65607412,1.65592012 L1.65607412,54.3447839 Z M7.31487453,61.6597845 C3.28147424,61.6597845 1.4000001e-05,58.3783242 1.4000001e-05,54.3447839 L1.4000001e-05,2.44972018 C1.4000001e-05,1.09886008 1.09887408,0 2.44959418,0 L59.5344583,0 C60.8851784,0 61.9841785,1.09886008 61.9841785,2.44972018 L61.9841785,8.10852059 L67.6428389,8.10852059 C68.993699,8.10852059 70.0926991,9.20752067 70.0926991,10.5585208 L70.0926991,54.3447839 C70.0926991,58.3783242 66.8112388,61.6597845 62.7776985,61.6597845 L7.31487453,61.6597845 Z" id="Fill-14" fill="#385E9D" mask="url(#mask-4)"></path>
                </g>
            </g>
        </g>
    </g>
</svg>