<?xml version="1.0" encoding="UTF-8"?>
<svg width="363px" height="452px" viewBox="0 0 363 452" version="1.1" xmlns="http://www.w3.org/2000/svg" xmlns:xlink="http://www.w3.org/1999/xlink">
    <!-- Generator: Sketch 47.1 (45422) - http://www.bohemiancoding.com/sketch -->
    <title>Page 1 Copy 5</title>
    <desc>Created with Sketch.</desc>
    <defs>
        <polygon id="path-1" points="0.619583639 0.253599866 14.3926082 0.253599866 14.3926082 14.0258081 0.619583639 14.0258081 0.619583639 0.253599866"></polygon>
    </defs>
    <g id="Page-1" stroke="none" stroke-width="1" fill="none" fill-rule="evenodd">
        <g id="Desktop-HD-Copy-3" transform="translate(-807.000000, -2539.000000)">
            <g id="Page-1-Copy-5" transform="translate(970.020118, 2720.194726) rotate(-120.000000) translate(-970.020118, -2720.194726) translate(800.520118, 2464.694726)">
                <path d="M2.12526863,16.0308897 C3.58686854,18.1692896 5.8908684,19.6812895 8.46126825,20.1348895 C11.0028681,20.6148894 13.6908679,20.0652895 15.8532678,18.5988895 C17.9868677,17.1108896 19.4748676,14.8068898 19.9572676,12.2652899 C20.4372675,9.71889007 19.8612676,7.00689023 18.4212677,4.87329036 C16.9332677,2.73489049 14.6292679,1.22289058 12.082868,0.745290606 C9.51726819,0.286890634 6.82926835,0.841290601 4.69086848,2.30289051 C2.5572686,3.76929043 1.04526869,6.09489029 0.565268721,8.64129014 C0.0828687502,11.18289 0.661268716,13.8948898 2.12526863,16.0308897" id="Fill-1" fill="#DBE2ED"></path>
                <path d="M325.943909,269.481674 C326.975909,270.993674 328.583909,272.025674 330.359908,272.361674 C332.159908,272.697674 334.031908,272.313674 335.519908,271.281674 C337.031908,270.249674 338.090308,268.639274 338.399908,266.865674 C338.735908,265.065674 338.351908,263.193674 337.319908,261.705674 C336.290308,260.193674 334.679908,259.161675 332.903908,258.825675 C331.103908,258.489675 329.231909,258.873675 327.743909,259.905674 C326.231909,260.935274 325.199909,262.545674 324.863909,264.321674 C324.527909,266.121674 324.911909,267.993674 325.943909,269.481674" id="Fill-3" fill="#DBE2ED"></path>
                <path d="M4.5729257,275.425697 C5.60492564,276.937697 7.21292554,277.969697 8.98892544,278.305697 C10.7889253,278.641697 12.6609252,278.257697 14.1489251,277.225697 C15.660925,276.193697 16.719325,274.583297 17.028925,272.809697 C17.3649249,271.009698 16.980925,269.137698 15.948925,267.649698 C14.9193251,266.137698 13.3089252,265.105698 11.5329253,264.769698 C9.73292539,264.433698 7.8609255,264.817698 6.37292559,265.849698 C4.86092568,266.879298 3.82892574,268.489698 3.49292576,270.265698 C3.15692578,272.065698 3.54092576,273.937697 4.5729257,275.425697" id="Fill-3-Copy" fill="#DBE2ED"></path>
                <g id="Group-7" transform="translate(163.999986, 169.146400)">
                    <mask id="mask-2" fill="white">
                        <use xlink:href="#path-1"></use>
                    </mask>
                    <g id="Clip-6"></g>
                    <path d="M3.52679979,12.7599991 C5.0147997,13.8159991 6.88679959,14.223999 8.66519948,13.9359991 C10.4651994,13.6239991 12.0947993,12.5919991 13.1267992,11.1039992 C14.1827992,9.63999931 14.5907991,7.74399942 14.3027991,5.96799953 C13.9907992,4.16799963 12.9611992,2.55999973 11.4731993,1.50399979 C10.0067994,0.471999853 8.13719951,0.0399998784 6.33719962,0.35199986 C4.53719973,0.663999841 2.92679983,1.67199978 1.87319989,3.15999969 C0.84119995,4.6479996 0.406799976,6.51999949 0.718799957,8.29599939 C1.03319994,10.0959993 2.04119988,11.7279992 3.52679979,12.7599991" id="Fill-5" fill="#DBE2ED" mask="url(#mask-2)"></path>
                </g>
                <path d="M223.291982,315.156037 C222.257582,313.668037 220.649582,312.612037 218.875982,312.276037 C217.099983,311.940037 215.203983,312.348037 213.715983,313.380037 C212.203983,314.412037 211.171983,315.998437 210.835983,317.798436 C210.499983,319.572036 210.883983,321.444036 211.915983,322.956036 C212.945583,324.444036 214.553583,325.502436 216.331983,325.836036 C218.131982,326.172036 220.003982,325.764036 221.491982,324.732036 C223.003982,323.724036 224.035982,322.116036 224.371982,320.316036 C224.707982,318.540036 224.323982,316.644037 223.291982,315.156037" id="Fill-8" fill="#DBE2ED"></path>
                <polygon id="Fill-19" fill="#DBE2ED" points="294.229048 149.890401 294.949048 140.698402 286.525048 144.442401 278.125049 141.202402 278.775448 150.370401 272.869049 157.570401 281.679448 159.4664 286.429048 167.1464 291.229048 159.1544 300.085047 156.706401"></polygon>
                <polygon id="Fill-21" fill="#DBE2ED" points="92.38399 211.929917 105.463989 213.033917 101.023989 200.964318 106.567989 188.985919 93.3919899 189.825919 83.7199905 181.305919 80.0239907 193.905918 68.5279914 200.649918 79.4239907 207.585918 81.9439906 220.260317"></polygon>
                <polygon id="Fill-12" fill="#DBE2ED" points="213.775983 471.713484 210.103983 484.313484 198.583984 491.033483 209.479983 497.993483 212.023983 510.641482 222.439982 502.337482 235.519981 503.441482 231.079982 491.369483 236.623981 479.393484 223.447982 480.209484"></polygon>
            </g>
        </g>
    </g>
</svg>