<?xml version="1.0" encoding="UTF-8"?>
<svg width="791px" height="523px" viewBox="0 0 791 523" version="1.1" xmlns="http://www.w3.org/2000/svg" xmlns:xlink="http://www.w3.org/1999/xlink">
    <!-- Generator: Sketch 47.1 (45422) - http://www.bohemiancoding.com/sketch -->
    <title>Page 1 Copy 7</title>
    <desc>Created with Sketch.</desc>
    <defs>
        <polygon id="path-1" points="0.619583639 0.253599866 14.3926082 0.253599866 14.3926082 14.0258081 0.619583639 14.0258081 0.619583639 0.253599866"></polygon>
        <polygon id="path-3" points="6.50521265e-20 0.256479866 6.50521265e-20 27.4484782 26.5675184 27.4484782 26.5675184 0.256479866 0 0.256479866"></polygon>
        <polygon id="path-5" points="6.50521265e-20 0.256479866 6.50521265e-20 27.4484782 26.5675184 27.4484782 26.5675184 0.256479866 0 0.256479866"></polygon>
    </defs>
    <g id="Page-1" stroke="none" stroke-width="1" fill="none" fill-rule="evenodd">
        <g id="Desktop-HD-Copy-3" transform="translate(-126.000000, -2931.000000)">
            <g id="Page-1-Copy-7" transform="translate(584.020948, 3184.621564) rotate(-120.000000) translate(-584.020948, -3184.621564) translate(275.520948, 2831.121564)">
                <path d="M216.125269,19.0308897 C217.586869,21.1692896 219.890868,22.6812895 222.461268,23.1348895 C225.002868,23.6148894 227.690868,23.0652895 229.853268,21.5988895 C231.986868,20.1108896 233.474868,17.8068898 233.957268,15.2652899 C234.437268,12.7188901 233.861268,10.0068902 232.421268,7.87329036 C230.933268,5.73489049 228.629268,4.22289058 226.082868,3.74529061 C223.517268,3.28689063 220.829268,3.8412906 218.690868,5.30289051 C216.557269,6.76929043 215.045269,9.09489029 214.565269,11.6412901 C214.082869,14.18289 214.661269,16.8948898 216.125269,19.0308897" id="Fill-1" fill="#DBE2ED"></path>
                <path d="M539.943909,272.481674 C540.975909,273.993674 542.583909,275.025674 544.359908,275.361674 C546.159908,275.697674 548.031908,275.313674 549.519908,274.281674 C551.031908,273.249674 552.090308,271.639274 552.399908,269.865674 C552.735908,268.065674 552.351908,266.193674 551.319908,264.705674 C550.290308,263.193674 548.679908,262.161675 546.903908,261.825675 C545.103908,261.489675 543.231909,261.873675 541.743909,262.905674 C540.231909,263.935274 539.199909,265.545674 538.863909,267.321674 C538.527909,269.121674 538.911909,270.993674 539.943909,272.481674" id="Fill-3" fill="#DBE2ED"></path>
                <path d="M208.71062,332.830567 C209.74262,334.342567 211.35062,335.374567 213.12662,335.710567 C214.92662,336.046567 216.79862,335.662567 218.28662,334.630567 C219.79862,333.598567 220.85702,331.988167 221.16662,330.214567 C221.50262,328.414567 221.11862,326.542567 220.08662,325.054567 C219.05702,323.542567 217.44662,322.510567 215.67062,322.174567 C213.87062,321.838567 211.99862,322.222567 210.51062,323.254567 C208.99862,324.284167 207.96662,325.894567 207.63062,327.670567 C207.29462,329.470567 207.67862,331.342567 208.71062,332.830567" id="Fill-3-Copy" fill="#DBE2ED"></path>
                <g id="Group-7" transform="translate(377.999986, 172.146400)">
                    <mask id="mask-2" fill="white">
                        <use xlink:href="#path-1"></use>
                    </mask>
                    <g id="Clip-6"></g>
                    <path d="M3.52679979,12.7599991 C5.0147997,13.8159991 6.88679959,14.223999 8.66519948,13.9359991 C10.4651994,13.6239991 12.0947993,12.5919991 13.1267992,11.1039992 C14.1827992,9.63999931 14.5907991,7.74399942 14.3027991,5.96799953 C13.9907992,4.16799963 12.9611992,2.55999973 11.4731993,1.50399979 C10.0067994,0.471999853 8.13719951,0.0399998784 6.33719962,0.35199986 C4.53719973,0.663999841 2.92679983,1.67199978 1.87319989,3.15999969 C0.84119995,4.6479996 0.406799976,6.51999949 0.718799957,8.29599939 C1.03319994,10.0959993 2.04119988,11.7279992 3.52679979,12.7599991" id="Fill-5" fill="#DBE2ED" mask="url(#mask-2)"></path>
                </g>
                <path d="M437.291982,318.156037 C436.257582,316.668037 434.649582,315.612037 432.875982,315.276037 C431.099983,314.940037 429.203983,315.348037 427.715983,316.380037 C426.203983,317.412037 425.171983,318.998437 424.835983,320.798436 C424.499983,322.572036 424.883983,324.444036 425.915983,325.956036 C426.945583,327.444036 428.553583,328.502436 430.331983,328.836036 C432.131982,329.172036 434.003982,328.764036 435.491982,327.732036 C437.003982,326.724036 438.035982,325.116036 438.371982,323.316036 C438.707982,321.540036 438.323982,319.644037 437.291982,318.156037" id="Fill-8" fill="#DBE2ED"></path>
                <path d="M34.7503288,418.771702 C32.9743289,418.435702 31.078329,418.843702 29.5903291,419.875702 C28.0783292,420.907701 27.0463293,422.494101 26.7103293,424.294101 C26.3743293,426.067701 26.7583293,427.939701 27.7903292,429.451701 C28.8199292,430.939701 30.4279291,431.998101 32.206329,432.331701 C34.0063289,432.667701 35.8783288,432.259701 37.3663287,431.227701 C38.8783286,430.219701 39.9103285,428.611701 40.2463285,426.811701 C40.5823285,425.035701 40.1983285,423.139701 39.1663286,421.651701 C38.1319286,420.163702 36.5239287,419.107702 34.7503288,418.771702 Z" id="Fill-8-Copy-2" fill="#DBE2ED"></path>
                <path d="M117.773281,384.426886 C119.237281,386.562886 121.541281,388.074886 124.085281,388.554886 C126.653281,389.034886 129.341281,388.458886 131.477281,386.994886 C133.615681,385.530886 135.12528,383.226886 135.60528,380.658886 C136.08528,378.114886 135.51168,375.426886 134.04528,373.290886 C132.581281,371.130887 130.253281,369.618887 127.711681,369.162887 C125.165281,368.658887 122.477281,369.234887 120.319681,370.722887 C118.181281,372.186887 116.693282,374.490886 116.215682,377.058886 C115.733282,379.602886 116.311682,382.290886 117.773281,384.426886" id="Fill-10" fill="#DBE2ED"></path>
                <g id="Group-16" transform="translate(135.771241, 209.660318)">
                    <mask id="mask-4" fill="white">
                        <use xlink:href="#path-3"></use>
                    </mask>
                    <g id="Clip-15"></g>
                    <polygon id="Fill-14" fill="#DBE2ED" mask="url(#mask-4)" points="-0.000479999971 13.7444791 7.60751955 18.5924788 9.38351944 27.4484782 16.655519 21.6404786 25.8235185 22.4324785 22.7035186 13.984479 26.5675184 5.60607955 17.375519 6.20607951 10.6339194 0.256479866 8.04191952 9.06447934"></polygon>
                </g>
                <g id="Group-16-Copy" transform="translate(4.678331, 539.688650)">
                    <mask id="mask-6" fill="white">
                        <use xlink:href="#path-5"></use>
                    </mask>
                    <g id="Clip-15"></g>
                    <polygon id="Fill-14" fill="#DBE2ED" mask="url(#mask-6)" points="-0.000479999971 13.7444791 7.60751955 18.5924788 9.38351944 27.4484782 16.655519 21.6404786 25.8235185 22.4324785 22.7035186 13.984479 26.5675184 5.60607955 17.375519 6.20607951 10.6339194 0.256479866 8.04191952 9.06447934"></polygon>
                </g>
                <polygon id="Fill-17" fill="#DBE2ED" points="357.578147 363.941893 354.458147 355.517893 358.343747 347.141894 349.127747 347.717893 342.386148 341.792294 339.818148 350.597893 331.778148 355.280293 339.386148 360.125893 341.162148 368.984292 348.431747 363.176293"></polygon>
                <polygon id="Fill-17-Copy-2" fill="#DBE2ED" points="25.8261983 357.978696 22.7061985 349.554697 26.5917982 341.178697 17.3757988 341.754697 10.6341992 335.829098 8.06619935 344.634697 0.0261998306 349.317097 7.63419938 354.162697 9.41019927 363.021096 16.6797988 357.213096"></polygon>
                <polygon id="Fill-17-Copy" fill="#DBE2ED" points="281.762391 694.948476 278.642392 686.524476 282.527991 678.148477 273.311992 678.724477 266.570392 672.798877 264.002392 681.604476 255.962393 686.286876 263.570393 691.132476 265.346392 699.990875 272.615992 694.182876"></polygon>
                <polygon id="Fill-19" fill="#DBE2ED" points="508.229048 152.890401 508.949048 143.698402 500.525048 147.442401 492.125049 144.202402 492.775448 153.370401 486.869049 160.570401 495.679448 162.4664 500.429048 170.1464 505.229048 162.1544 514.085047 159.706401"></polygon>
                <polygon id="Fill-19-Copy" fill="#DBE2ED" points="610.389465 9.41430863 611.109465 0.222309177 602.685466 3.96630895 594.285466 0.726309146 594.935866 9.8943086 589.029466 17.0943082 597.839866 18.9903081 602.589466 26.6703076 607.389465 18.6783081 616.245465 16.2303082"></polygon>
                <polygon id="Fill-21" fill="#DBE2ED" points="268.343992 181.293199 281.423991 182.397199 276.983992 170.3276 282.527991 158.349201 269.351992 159.189201 259.679993 150.669201 255.983993 163.2692 244.487994 170.0132 255.383993 176.9492 257.903993 189.623599"></polygon>
                <polygon id="Fill-12" fill="#DBE2ED" points="427.775983 474.713484 424.103983 487.313484 412.583984 494.033483 423.479983 500.993483 426.023983 513.641482 436.439982 505.337482 449.519981 506.441482 445.079982 494.369483 450.623981 482.393484 437.447982 483.209484"></polygon>
                <path d="M398.087984,696.090876 C397.053585,694.602876 395.445585,693.546876 393.671985,693.210876 C391.895985,692.874876 389.999985,693.282876 388.511985,694.314876 C386.999985,695.346876 385.967985,696.933276 385.631985,698.733275 C385.295985,700.506875 385.679985,702.378875 386.711985,703.890875 C387.741585,705.378875 389.349585,706.437275 391.127985,706.770875 C392.927985,707.106875 394.799985,706.698875 396.287985,705.666875 C397.799985,704.658875 398.831984,703.050875 399.167984,701.250875 C399.503984,699.474875 399.119984,697.578875 398.087984,696.090876" id="Fill-8-Copy" fill="#DBE2ED"></path>
            </g>
        </g>
    </g>
</svg>