<?xml version="1.0" encoding="UTF-8"?>
<svg width="337px" height="532px" viewBox="0 0 337 532" version="1.1" xmlns="http://www.w3.org/2000/svg" xmlns:xlink="http://www.w3.org/1999/xlink">
    <!-- Generator: Sketch 47.1 (45422) - http://www.bohemiancoding.com/sketch -->
    <title>Page 1 Copy 6</title>
    <desc>Created with Sketch.</desc>
    <defs>
        <polygon id="path-1" points="0.619583639 0.253599866 14.3926082 0.253599866 14.3926082 14.0258081 0.619583639 14.0258081 0.619583639 0.253599866"></polygon>
    </defs>
    <g id="Page-1" stroke="none" stroke-width="1" fill="none" fill-rule="evenodd">
        <g id="Desktop-HD-Copy-3" transform="translate(-1103.000000, -2493.000000)">
            <g id="Page-1-Copy-6" transform="translate(1428.710834, 2695.406250) rotate(-120.000000) translate(-1428.710834, -2695.406250) translate(1109.210834, 2400.406250)">
                <path d="M535.943909,155.481674 C536.975909,156.993674 538.583909,158.025674 540.359908,158.361674 C542.159908,158.697674 544.031908,158.313674 545.519908,157.281674 C547.031908,156.249674 548.090308,154.639274 548.399908,152.865674 C548.735908,151.065674 548.351908,149.193674 547.319908,147.705674 C546.290308,146.193674 544.679908,145.161675 542.903908,144.825675 C541.103908,144.489675 539.231909,144.873675 537.743909,145.905674 C536.231909,146.935274 535.199909,148.545674 534.863909,150.321674 C534.527909,152.121674 534.911909,153.993674 535.943909,155.481674" id="Fill-3" fill="#DBE2ED"></path>
                <path d="M626.150637,148.595143 C627.182637,150.107143 628.790637,151.139143 630.566637,151.475143 C632.366636,151.811143 634.238636,151.427143 635.726636,150.395143 C637.238636,149.363143 638.297036,147.752743 638.606636,145.979143 C638.942636,144.179144 638.558636,142.307144 637.526636,140.819144 C636.497036,139.307144 634.886636,138.275144 633.110636,137.939144 C631.310636,137.603144 629.438637,137.987144 627.950637,139.019144 C626.438637,140.048744 625.406637,141.659144 625.070637,143.435144 C624.734637,145.235143 625.118637,147.107143 626.150637,148.595143" id="Fill-3-Copy-2" fill="#DBE2ED"></path>
                <path d="M214.572926,161.425697 C215.604926,162.937697 217.212926,163.969697 218.988925,164.305697 C220.788925,164.641697 222.660925,164.257697 224.148925,163.225697 C225.660925,162.193697 226.719325,160.583297 227.028925,158.809697 C227.364925,157.009698 226.980925,155.137698 225.948925,153.649698 C224.919325,152.137698 223.308925,151.105698 221.532925,150.769698 C219.732925,150.433698 217.860926,150.817698 216.372926,151.849698 C214.860926,152.879298 213.828926,154.489698 213.492926,156.265698 C213.156926,158.065698 213.540926,159.937697 214.572926,161.425697" id="Fill-3-Copy" fill="#DBE2ED"></path>
                <g id="Group-7" transform="translate(373.999986, 55.146400)">
                    <mask id="mask-2" fill="white">
                        <use xlink:href="#path-1"></use>
                    </mask>
                    <g id="Clip-6"></g>
                    <path d="M3.52679979,12.7599991 C5.0147997,13.8159991 6.88679959,14.223999 8.66519948,13.9359991 C10.4651994,13.6239991 12.0947993,12.5919991 13.1267992,11.1039992 C14.1827992,9.63999931 14.5907991,7.74399942 14.3027991,5.96799953 C13.9907992,4.16799963 12.9611992,2.55999973 11.4731993,1.50399979 C10.0067994,0.471999853 8.13719951,0.0399998784 6.33719962,0.35199986 C4.53719973,0.663999841 2.92679983,1.67199978 1.87319989,3.15999969 C0.84119995,4.6479996 0.406799976,6.51999949 0.718799957,8.29599939 C1.03319994,10.0959993 2.04119988,11.7279992 3.52679979,12.7599991" id="Fill-5" fill="#DBE2ED" mask="url(#mask-2)"></path>
                </g>
                <path d="M162.295518,220.49863 C163.759518,222.63463 166.063518,224.14663 168.607518,224.62663 C171.175518,225.10663 173.863518,224.53063 175.999517,223.06663 C178.137917,221.60263 179.647517,219.29863 180.127517,216.73063 C180.607517,214.18663 180.033917,211.498631 178.567517,209.362631 C177.103517,207.202631 174.775518,205.690631 172.233918,205.234631 C169.687518,204.730631 166.999518,205.306631 164.841918,206.794631 C162.703518,208.258631 161.215518,210.562631 160.737918,213.13063 C160.255518,215.67463 160.833918,218.36263 162.295518,220.49863" id="Fill-10" fill="#DBE2ED"></path>
                <polygon id="Fill-17" fill="#DBE2ED" points="353.578147 246.941893 350.458147 238.517893 354.343747 230.141894 345.127747 230.717893 338.386148 224.792294 335.818148 233.597893 327.778148 238.280293 335.386148 243.125893 337.162148 251.984292 344.431747 246.176293"></polygon>
                <polygon id="Fill-19" fill="#DBE2ED" points="504.229048 35.890401 504.949048 26.6984016 496.525048 30.4424013 488.125049 27.2024015 488.775448 36.370401 482.869049 43.5704006 491.679448 45.4664004 496.429048 53.1464 501.229048 45.1544005 510.085047 42.7064006"></polygon>
                <polygon id="Fill-21" fill="#DBE2ED" points="122.032502 31.5920013 135.112502 32.6960012 130.672502 20.6264019 136.216502 8.64800264 123.040502 9.48800259 113.368503 0.968003101 109.672503 13.5680024 98.1765038 20.3120019 109.072503 27.2480015 111.592503 39.9224008"></polygon>
                <polygon id="Fill-12" fill="#DBE2ED" points="423.775983 357.713484 420.103983 370.313484 408.583984 377.033483 419.479983 383.993483 422.023983 396.641482 432.439982 388.337482 445.519981 389.441482 441.079982 377.369483 446.623981 365.393484 433.447982 366.209484"></polygon>
            </g>
        </g>
    </g>
</svg>