<?xml version="1.0" encoding="UTF-8"?>
<svg width="250px" height="251px" viewBox="0 0 250 251" version="1.1" xmlns="http://www.w3.org/2000/svg" xmlns:xlink="http://www.w3.org/1999/xlink">
    <!-- Generator: Sketch 47.1 (45422) - http://www.bohemiancoding.com/sketch -->
    <title>Page 1</title>
    <desc>Created with Sketch.</desc>
    <defs>
        <polygon id="path-1" points="0 249.914549 249.605109 249.914549 249.605109 0.279999943 0 0.279999943"></polygon>
    </defs>
    <g id="Page-1" stroke="none" stroke-width="1" fill="none" fill-rule="evenodd">
        <g id="Desktop-HD-Copy-3" transform="translate(-361.000000, -1402.000000)">
            <g id="Page-1" transform="translate(361.360008, 1402.218750)">
                <g id="Group-3" transform="translate(0.000000, 0.034560)" fill="#DBE2ED">
                    <path d="M57.3665254,229.93375 C57.3665254,230.06175 56.1889255,229.29375 55.0753255,228.42335 C55.8305255,228.94815 56.5857255,229.46015 57.3665254,229.93375 L57.3665254,229.93375 Z M48.2913258,223.50815 C49.2129258,224.36575 48.4334058,223.76415 47.7281259,223.06015 C47.9073259,223.21375 48.0993258,223.36735 48.2913258,223.50815 L48.2913258,223.50815 Z M60.8481253,219.89855 C59.5809253,219.02815 59.1713254,218.74655 59.1329254,218.72095 C59.1457254,218.73375 59.2097254,218.77215 59.2993253,218.83615 C59.1969254,218.75935 59.1201254,218.72095 59.1329254,218.72095 C59.1201254,218.70815 59.5041253,218.96415 60.8481253,219.89855 L60.8481253,219.89855 Z M145.891321,248.058549 C147.273721,247.828149 148.656121,247.572149 150.038521,247.264949 C148.604921,247.572149 147.248121,247.828149 145.891321,248.058549 L145.891321,248.058549 Z M151.305721,246.983349 C152.585721,246.714549 153.865721,246.407349 155.120121,246.074549 C153.764601,246.420149 152.496121,246.727349 151.305721,246.983349 L151.305721,246.983349 Z M50.2369258,211.80895 C50.3649257,211.92415 50.0705258,211.68095 49.7761258,211.399351 C49.9297258,211.55295 50.0846058,211.69375 50.2369258,211.80895 L50.2369258,211.80895 Z M28.6305267,204.410551 C28.6177267,204.410551 28.6049267,204.397751 28.6049267,204.397751 C27.7985268,203.424951 27.0049268,202.439351 26.2369268,201.440951 C27.1713268,202.810551 28.2081267,204.090551 28.6305267,204.410551 L28.6305267,204.410551 Z M144.521722,237.754549 C145.660921,237.677749 146.838521,237.984949 147.836921,238.701749 C150.179321,240.365749 150.729721,243.604149 149.078521,245.946549 C148.208121,247.175349 146.915321,247.904949 145.532921,248.096949 L145.545721,248.122549 C115.132923,253.293749 84.8993242,246.842549 59.8881253,231.53375 C59.1073254,230.85535 58.5313254,229.95935 58.2625254,228.88415 C57.5713254,226.10655 59.2609254,223.27775 62.0385252,222.57375 C63.3953252,222.24095 64.7649251,222.47135 65.8913251,223.11135 C65.7761251,223.04735 65.6737251,222.97055 65.5073251,222.85535 C88.790524,236.973749 117.040123,242.797749 145.393402,237.562549 C145.059322,237.652149 144.790522,237.703349 144.521722,237.754549 L144.521722,237.754549 Z M157.987321,245.357749 C157.590521,245.472949 157.206521,245.575349 156.809721,245.652149 C159.920121,244.845749 163.017721,243.898549 166.064121,242.797749 C162.761721,243.962549 160.393721,244.692149 157.987321,245.357749 L157.987321,245.357749 Z M153.264121,235.821749 C153.686521,235.744949 154.108921,235.642549 154.544121,235.501749 C153.968121,235.668149 153.393401,235.821749 153.264121,235.821749 L153.264121,235.821749 Z M19.8113271,192.378551 C19.8881271,192.493751 19.9534071,192.608951 20.0289271,192.724151 C20.0161271,192.711351 20.0161271,192.685751 20.0161271,192.672951 C22.076927,195.949751 22.704127,196.858551 22.384127,196.205751 C21.577727,195.066551 20.7969271,193.901751 20.0289271,192.724151 C20.0929271,192.877751 20.1697271,193.031351 20.2465271,193.172151 L20.2337271,193.172151 C19.8241271,192.544951 19.4273271,191.904951 18.9025272,191.008951 C19.3249271,191.789751 19.7985271,192.532151 19.8113271,192.378551 L19.8113271,192.378551 Z M177.05932,238.343349 C176.76492,238.496949 176.45772,238.637749 176.62412,238.548149 C175.29292,239.162549 174.43532,239.533749 173.61612,239.879349 C173.05292,240.122549 172.54092,240.327349 171.55532,240.724149 C170.41612,241.197749 168.77772,241.824949 167.126521,242.413749 C168.61132,241.888949 170.0846,241.325749 171.55532,240.724149 C172.23372,240.468149 172.89932,240.186549 173.61612,239.879349 C174.58892,239.469749 175.61292,239.021749 176.62412,238.548149 C176.76492,238.484149 176.91852,238.420149 177.05932,238.343349 L177.05932,238.343349 Z M164.004601,232.49375 C163.376121,232.74975 162.748921,232.98015 163.004921,232.85215 C163.337721,232.74975 163.670521,232.63455 164.004601,232.49375 L164.004601,232.49375 Z M14.1153274,182.573752 C14.9089273,184.122552 15.7409273,185.645752 16.6241273,187.117752 C17.2769272,188.448952 17.6481272,189.076152 17.6993272,189.088952 C16.3681273,186.874552 15.1137273,184.621752 13.6417274,181.716152 C13.7441274,182.036152 13.8849274,182.330552 14.1153274,182.573752 L14.1153274,182.573752 Z M186.19852,233.67135 L186.19852,233.67135 L186.21132,233.68415 L186.19852,233.67135 Z M13.2334074,180.922552 C13.1297274,180.743352 13.0401274,180.564152 12.9646074,180.384952 C11.9265275,178.336952 10.9537275,176.250552 10.0577276,174.138552 C11.0561275,176.442552 12.1185275,178.695352 13.2334074,180.922552 L13.2334074,180.922552 Z M10.0449276,174.125752 C8.77772761,171.207352 7.63852766,168.212152 6.6017277,165.152953 C7.63852766,168.186552 8.79052761,171.181752 10.0449276,174.125752 L10.0449276,174.125752 Z M4.93772778,159.840953 C5.02732778,160.160953 5.11692777,160.468153 5.21932777,160.788153 C5.64172775,162.247353 6.11532773,163.706553 6.6017277,165.152953 C6.16652772,163.847353 5.74412774,162.541753 5.21932777,160.788153 C5.20652777,160.762553 5.06572777,160.301753 4.93772778,159.840953 C4.78412779,159.316153 4.63052779,158.791353 4.4897278,158.253753 C4.28492781,157.536953 4.09292782,156.820153 3.72172783,155.130553 C4.08012782,156.717753 4.4897278,158.279353 4.93772778,159.840953 L4.93772778,159.840953 Z M0.124927994,119.495355 L0.124927994,119.495355 C0.124927994,119.508155 0.124927994,119.495355 0.124927994,119.495355 L0.124927994,119.495355 Z M0.124927994,119.495355 L0.124927994,119.495355 L0.124927994,119.482555 L0.124927994,119.495355 Z M0.124927994,119.482555 C0.124927994,119.495355 0.124927994,119.495355 0.124927994,119.482555 C0.124927994,119.495355 0.124927994,119.495355 0.124927994,119.482555 L0.124927994,119.482555 Z M0.124927994,119.495355 L0.124927994,119.482555 L0.124927994,119.495355 Z M0.124927994,119.456955 L0.124927994,119.482555 C0.124927994,119.495355 0.124927994,119.495355 0.124927994,119.482555 L0.124927994,119.392955 L0.124927994,119.456955 Z M0.124927994,119.392955 C0.137727994,119.072955 0.150527993,118.765755 0.201727991,118.445755 C0.150527993,118.765755 0.137727994,119.072955 0.124927994,119.392955 L0.124927994,119.482555 L0.124927994,119.495355 C0.124927994,119.418555 0.137727994,119.328955 0.150527993,119.149755 C0.150527993,119.072955 0.164607993,118.970555 0.164607993,118.855355 C0.176127992,118.740155 0.188927992,118.612155 0.201727991,118.445755 C0.188927992,118.612155 0.176127992,118.740155 0.164607993,118.855355 C0.164607993,118.970555 0.150527993,119.072955 0.150527993,119.149755 C0.137727994,119.328955 0.124927994,119.418555 0.124927994,119.495355 C0.124927994,119.495355 0.124927994,119.508155 0.124927994,119.495355 C0.0353279984,121.376955 -0.00307199986,123.181754 0.00972799957,125.037754 C-0.00307199986,126.061754 0.022527999,127.149754 0.0737279967,128.237754 C0.113407995,130.516154 0.22732799,132.781754 0.433407981,135.047354 C0.44492798,135.520954 0.484607978,135.994554 0.534527976,136.468154 C0.66252797,137.863354 0.816127964,139.271354 1.00812795,140.628154 C1.05932795,141.229754 1.13612795,141.805754 1.23852794,142.368954 C1.41772794,143.751354 1.63532793,145.133753 1.86572792,146.452153 C1.89132792,146.656953 1.91692791,146.797753 1.94252791,146.951353 L1.95532791,146.951353 L1.95532791,146.925753 C1.82732792,145.722553 2.10892791,144.480953 2.85132787,143.405754 C4.4897278,141.050554 7.72812765,140.461754 10.0846075,142.100154 C11.1201275,142.816954 11.8113275,143.828154 12.1313275,144.954553 C12.6049274,147.629753 13.1809274,150.317753 13.8849274,152.992953 C13.7441274,152.621753 13.6417274,152.224953 13.5534074,151.828153 C13.6929274,152.967353 13.4625274,154.157753 12.8097274,155.194553 C11.2993275,157.639353 8.09932764,158.394553 5.65452775,156.884153 C4.4129278,156.116153 3.60652784,154.900153 3.33772785,153.568953 C2.86412787,151.751353 2.48012789,149.933753 1.95532791,146.925753 C2.03340791,147.565753 1.92972791,147.002553 1.86572792,146.452153 C1.64812793,145.402553 1.48172793,144.352954 1.23852794,142.368954 C1.18732795,142.407354 1.07340795,141.524154 1.00812795,140.628154 C0.816127964,139.514554 0.688127969,138.400954 0.534527976,136.468154 C0.508927977,136.532154 0.44492798,135.789754 0.433407981,135.047354 C0.21452799,132.884154 0.0993279956,130.733754 0.0737279967,128.237754 C0.00972799957,127.392954 -0.0158719993,126.215354 0.00972799957,125.037754 C-0.00307199986,123.194554 0.0353279984,121.338555 0.124927994,119.495355 C0.113407995,119.546555 0.124927994,119.520955 0.124927994,119.482555 L0.124927994,119.456955 L0.124927994,119.392955 C0.201727991,117.780155 0.304127986,116.167355 0.45772798,114.375355 C0.316927986,116.052155 0.201727991,117.716155 0.124927994,119.392955 L0.124927994,119.392955 Z M0.880127961,110.292155 C0.828927963,110.701755 0.777727965,111.098555 0.753407966,111.508155 C0.726527968,111.495355 0.790527965,110.893755 0.880127961,110.292155 C1.12460795,108.154555 1.43052794,106.016955 1.78892792,103.892155 C1.43052794,106.029755 1.12460795,108.154555 0.880127961,110.292155 L0.880127961,110.292155 Z M245.078517,91.8729558 C260.630516,148.192953 234.915317,206.215351 186.21132,233.68415 C185.58412,234.029749 184.96972,234.375349 184.76492,234.452149 C183.51052,235.168949 182.67852,235.604149 181.82092,236.039349 C182.78092,235.540149 183.77932,235.015349 184.76492,234.452149 C185.25132,234.208949 185.72492,233.940149 186.19852,233.67135 L186.19852,233.65855 C185.11052,234.183349 183.83052,234.336949 182.5646,233.991349 C179.79852,233.23615 178.17292,230.36895 178.92812,227.60415 C179.24812,226.43935 179.93932,225.47935 180.83532,224.81375 C225.635318,199.661751 249.328117,146.362553 235.056117,94.6377557 C218.262518,33.7609584 155.222521,-2.00223996 94.3585238,14.7913593 C50.0334058,27.0281587 19.0177271,63.7769571 11.9265275,106.362555 C11.9265275,106.336955 11.9265275,106.298555 11.9393275,106.272955 C11.6193275,107.373755 10.9409275,108.384955 9.94252756,109.088955 C7.58732766,110.740155 4.34892781,110.189755 2.68492788,107.847355 C1.82732792,106.618555 1.55852793,105.159355 1.84012792,103.789755 L1.80172792,103.789755 C9.81452756,57.7097574 43.5297261,18.0297591 91.5937239,4.76895974 C157.987321,-13.5606394 226.761718,25.4665588 245.078517,91.8729558 L245.078517,91.8729558 Z" id="Fill-1"></path>
                </g>
                <path d="M224.160246,139.267642 C223.609846,140.253242 222.573046,140.867642 221.446646,140.867642 L215.265526,140.867642 L215.265526,183.37644 C211.654647,188.97004 207.533047,194.218039 202.976247,199.030839 C201.965047,200.093239 200.929527,201.142839 199.878647,202.166839 C198.867447,203.152439 197.843447,204.125239 196.793847,205.059639 C196.512247,205.315639 196.230647,205.571639 195.936247,205.814839 C194.747127,206.877239 193.518327,207.914039 192.275447,208.899639 C190.958327,209.974839 189.613048,210.998839 188.243448,211.997238 C183.469048,215.491638 178.400248,218.602038 173.075448,221.264438 C170.873848,222.378038 168.633848,223.414838 166.342649,224.362038 C163.616249,225.514038 160.827129,226.550838 157.985529,227.459638 C147.540729,230.851638 136.39065,232.682038 124.80665,232.682038 C113.222651,232.682038 102.073851,230.851638 91.6290519,227.459638 C88.774652,226.550838 85.9855322,225.514038 83.2578523,224.362038 C80.9666524,223.414838 78.7266525,222.378038 76.5250526,221.264438 C71.2002528,218.602038 66.131453,215.491638 61.3583333,211.997238 C59.9874533,210.998839 58.6434534,209.974839 57.3250534,208.899639 C55.2783335,207.261239 53.2930536,205.546039 51.3730537,203.741239 C50.3234538,202.755639 49.2866538,201.757239 48.2754538,200.733239 C43.718654,196.125239 39.5714542,191.107639 35.9106544,185.74444 L35.9106544,140.867642 L29.8050547,140.867642 C28.6786547,140.867642 27.6431348,140.253242 27.0914548,139.267642 C26.5538548,138.282042 26.5922548,137.066042 27.1938548,136.118842 L48.8386538,102.096443 C49.4146538,101.213243 50.4002537,100.675643 51.4498537,100.675643 L108.923131,100.675643 L123.48953,86.1092441 C124.69145,84.9060442 126.64985,84.9060442 127.85305,86.1092441 L142.42073,100.675643 L199.803127,100.675643 C200.851447,100.675643 201.838327,101.213243 202.413047,102.096443 L224.057846,136.118842 C224.660726,137.066042 224.697846,138.282042 224.160246,139.267642" id="Fill-4" fill="#DBE2ED"></path>
                <path d="M232.416502,125.072058 C232.416502,142.838458 228.115702,159.593657 220.486902,174.352056 L220.486902,146.089657 L221.446902,146.089657 C224.480502,146.089657 227.269622,144.438457 228.742902,141.776058 C230.189302,139.113658 230.086902,135.875258 228.461302,133.315258 L206.816503,99.2928595 C205.280503,96.8864596 202.656503,95.4400597 199.803383,95.4400597 L144.570106,95.4400597 L131.552506,82.4224603 C129.978106,80.8480603 127.891706,79.9789404 125.665786,79.9789404 C123.450106,79.9789404 121.363707,80.8480603 119.789307,82.4224603 L106.758907,95.4400597 L51.4501097,95.4400597 C48.5957098,95.4400597 45.9717099,96.8864596 44.43571,99.2928595 L22.789631,133.315258 C21.1653111,135.875258 21.0629111,139.113658 22.523391,141.790138 C23.9813109,144.438457 26.7717108,146.089657 29.8053107,146.089657 L30.6757106,146.089657 L30.6757106,177.258936 C22.074111,161.808057 17.1857912,144.016058 17.1857912,125.072058 C17.1857912,65.630141 65.3637091,17.4496632 124.806906,17.4496632 C184.237304,17.4496632 232.416502,65.630141 232.416502,125.072058" id="Fill-6" fill="#DBE2ED"></path>
                <path d="M224.160246,139.267642 C223.609846,140.253242 222.573046,140.867642 221.446646,140.867642 L215.265526,140.867642 L215.265526,183.37644 C211.654647,188.97004 207.533047,194.218039 202.976247,199.030839 C201.965047,200.093239 200.929527,201.142839 199.878647,202.166839 C198.867447,203.152439 197.843447,204.125239 196.793847,205.059639 L196.388087,205.403959 L195.936247,205.814839 C194.747127,206.877239 193.518327,207.914039 192.275447,208.899639 C190.958327,209.974839 189.613048,210.998839 188.243448,211.997238 C183.469048,215.491638 178.400248,218.602038 173.075448,221.264438 C170.873848,222.378038 168.633848,223.414838 166.342649,224.362038 C163.616249,225.514038 160.827129,226.550838 157.985529,227.459638 C147.540729,230.851638 136.39065,232.682038 124.80665,232.682038 C113.222651,232.682038 102.073851,230.851638 91.6290519,227.459638 C88.774652,226.550838 85.9855322,225.514038 83.2578523,224.362038 C80.9666524,223.414838 78.7266525,222.378038 76.5250526,221.264438 C71.2002528,218.602038 66.131453,215.491638 61.3583333,211.997238 C59.9874533,210.998839 58.6434534,209.974839 57.3250534,208.899639 C55.2783335,207.261239 53.2930536,205.546039 51.3730537,203.741239 C50.3234538,202.755639 49.2866538,201.757239 48.2754538,200.733239 C43.718654,196.125239 39.5714542,191.107639 35.9106544,185.74444 L35.9106544,140.867642 L29.8050547,140.867642 C28.6786547,140.867642 27.6431348,140.253242 27.0914548,139.267642 C26.5538548,138.282042 26.5922548,137.066042 27.1938548,136.118842 L48.8386538,102.096443 C49.4146538,101.213243 50.4002537,100.675643 51.4498537,100.675643 L108.923131,100.675643 L123.48953,86.1092441 C124.69145,84.9060442 126.64985,84.9060442 127.85305,86.1092441 L142.42073,100.675643 L199.803127,100.675643 C200.851447,100.675643 201.838327,101.213243 202.413047,102.096443 L224.057846,136.118842 C224.660726,137.066042 224.697846,138.282042 224.160246,139.267642" id="Fill-8" fill="#8EA3BA"></path>
                <path d="M50.4702697,74.5276766 C51.7489897,75.0511966 53.2120296,75.0383966 54.4971496,74.5007966 C55.7720295,73.9683166 56.7998695,72.9238367 57.3233894,71.6463968 C57.8456294,70.3676768 57.8443494,68.8982369 57.3131494,67.6233569 C56.7742695,66.338237 55.7297895,65.309117 54.4510696,64.7868771 C53.1723496,64.2633571 51.7029097,64.2646371 50.4177897,64.8035171 C49.1441898,65.334717 48.1150698,66.379197 47.5915499,67.6579169 C47.0590699,68.9430369 47.0705899,70.4060768 47.6094699,71.6911968 C48.1419498,72.9647967 49.1851498,73.9939166 50.4702697,74.5276766" id="Fill-10" fill="#FFFFFF"></path>
                <path d="M174.426488,50.9107817 C175.322488,51.2717417 176.349048,51.2704617 177.238648,50.8992617 C178.121848,50.5178217 178.854008,49.7907817 179.213688,48.8960618 C179.586168,47.9923818 179.573368,46.9735019 179.203448,46.0839019 C178.827128,45.1827819 178.094968,44.468542 177.210488,44.101182 C176.314488,43.740222 175.289208,43.741502 174.388088,44.119102 C173.497208,44.489022 172.784248,45.2199019 172.405368,46.1120619 C172.044408,47.0080619 172.045688,48.0333418 172.423288,48.9344618 C172.803448,49.8176617 173.524088,50.5383017 174.426488,50.9107817" id="Fill-12" fill="#FFFFFF"></path>
                <path d="M172.0078,109.090235 C172.9806,109.124795 173.9342,108.758715 174.64588,108.091835 C175.34476,107.432635 175.77612,106.504635 175.81196,105.531835 C175.835,104.566715 175.47916,103.605435 174.81868,102.905275 C174.15308,102.194875 173.21484,101.769915 172.25996,101.739195 C171.28844,101.704635 170.32716,102.060475 169.61676,102.727355 C168.9166,103.386555 168.49164,104.324795 168.45708,105.297595 C168.42636,106.252475 168.78092,107.213755 169.44908,107.924155 C170.10828,108.624315 171.04652,109.049275 172.0078,109.090235" id="Fill-14" fill="#FFFFFF"></path>
                <path d="M149.645305,40.4389741 C148.742905,40.0664942 147.716345,40.0677742 146.826745,40.4389741 C145.933305,40.8268141 145.211386,41.5474541 144.851706,42.4421741 C144.480506,43.345854 144.492026,44.364734 144.851706,45.2620139 C145.239546,46.1554539 145.958905,46.8760939 146.854905,47.2370538 C147.752185,47.5980138 148.776185,47.5967338 149.667065,47.2268138 C150.568185,46.8492139 151.281145,46.1183339 151.649785,45.2338539 C152.010745,44.337854 152.010745,43.311294 151.631865,42.4114541 C151.261945,41.5205741 150.541305,40.7999341 149.645305,40.4389741" id="Fill-16" fill="#FFFFFF"></path>
                <path d="M151.916537,80.7646043 C153.195257,81.2868443 154.663417,81.2855643 155.939577,80.7543643 C157.223417,80.2154844 158.252537,79.1710044 158.774777,77.8935645 C159.299577,76.6148445 159.290617,75.1351646 158.758137,73.8602847 C158.226937,72.5854047 157.182457,71.5562848 155.903737,71.0340448 C154.618617,70.5002848 153.137657,70.5092448 151.871737,71.0506848 C150.596857,71.5831648 149.567737,72.6276447 149.033977,73.9114847 C148.511737,75.1914846 148.513017,76.6596445 149.062137,77.9383645 C149.594617,79.2132444 150.627577,80.2487644 151.916537,80.7646043" id="Fill-18" fill="#FFFFFF"></path>
                <polygon id="Fill-20" fill="#FFFFFF" points="197.823991 74.7951966 199.869431 81.4921563 196.705271 87.862716 203.592951 87.760316 208.439031 92.6627158 210.658551 85.9030361 216.81023 82.5609563 211.276791 78.4790364 210.245111 71.5286368 204.613111 75.7539166"></polygon>
                <polygon id="Fill-22" fill="#FFFFFF" points="30.7327986 93.5176278 35.5443184 93.4485078 38.9222383 96.8635476 40.4723182 92.1377878 44.779518 89.8107479 40.9126382 86.9601881 40.1804782 82.0961883 36.2598384 85.0568282 31.5110386 84.3809882 32.9369585 89.064508"></polygon>
                <polygon id="Fill-24" fill="#FFFFFF" points="87.4690521 82.2527323 92.2805719 82.1836123 95.6597717 85.5986521 97.2085717 80.8728923 101.515771 78.5458524 97.6501716 75.6952926 96.9167317 70.8312928 92.9960918 73.7919327 88.2472921 73.1160927 89.674492 77.7996125"></polygon>
                <polygon id="Fill-26" fill="#FFFFFF" points="194.305271 68.8401249 190.446071 66.001085 189.713912 61.1358052 185.786872 64.0862051 181.044472 63.4206051 182.462712 68.0951649 180.258552 72.5470047 185.070072 72.4778847 188.465912 75.8967646 190.005752 71.1774048"></polygon>
                <polygon id="Fill-28" fill="#FFFFFF" points="126.473978 41.5670381 124.100858 37.2598383 121.443579 41.3967981 116.758779 42.4259181 119.727099 46.3107179 119.206139 51.2489577 123.686138 49.5132777 128.054778 51.5420777 127.858938 46.5846379 131.087098 42.899518"></polygon>
                <polygon id="Fill-30" fill="#FFFFFF" points="98.6415316 46.8257899 104.794491 43.48499 99.2776916 39.4069102 98.2396116 32.4449905 92.6140119 36.6805103 85.8069722 35.7179504 87.8626521 42.4097901 84.6984922 48.7790698 91.5938519 48.6881898 96.4335317 53.5790696"></polygon>
                <path d="M215.26527,140.867642 L215.26527,183.37644 C211.655671,188.97004 207.532791,194.218039 202.975991,199.030839 C201.964791,200.093239 200.929271,201.142839 199.878391,202.166839 C198.867191,203.152439 197.844471,204.125239 196.793591,205.059639 L196.387831,205.403959 L195.935991,205.814839 C194.746871,206.877239 193.518071,207.914039 192.275191,208.899639 C190.958071,209.974839 189.612792,210.998839 188.244472,211.997238 C183.468792,215.491638 178.399992,218.602038 173.075192,221.264438 C170.873592,222.378038 168.633592,223.414838 166.342393,224.362038 L83.2575963,224.362038 C80.9663964,223.414838 78.7263965,222.378038 76.5247966,221.264438 C71.1999968,218.602038 66.131197,215.491638 61.3580773,211.997238 C59.9871973,210.998839 58.6444774,209.974839 57.3247974,208.899639 C55.2780775,207.261239 53.2927976,205.546039 51.3727977,203.741239 C50.3244778,202.755639 49.2863978,201.757239 48.2751978,200.733239 C43.718398,196.125239 39.5711982,191.107639 35.9103984,185.74444 L35.9103984,140.867642 L73.0175967,140.867642 L112.353275,101.546043 L125.587194,88.298044 L178.158072,140.867642 L215.26527,140.867642 Z" id="Fill-32" fill="#DBE2ED"></path>
                <mask id="mask-2" fill="white">
                    <use xlink:href="#path-1"></use>
                </mask>
                <g id="Clip-35"></g>
                <polygon id="Fill-34" fill="#FFFFFF" mask="url(#mask-2)" points="107.029755 224.36191 144.136954 224.36191 144.136954 187.254712 107.029755 187.254712"></polygon>
                <path d="M143.365242,174.885816 L107.804283,174.885816 C107.376763,174.885816 107.029883,175.232696 107.029883,175.658936 L107.029883,187.255736 L144.138362,187.255736 L144.138362,175.658936 C144.138362,175.232696 143.791482,174.885816 143.365242,174.885816" id="Fill-36" fill="#FFFFFF" mask="url(#mask-2)"></path>
                <path d="M224.160246,139.267642 C223.609846,140.253242 222.573046,140.867642 221.446646,140.867642 L175.060728,140.867642 C174.445048,140.867642 173.856248,140.688442 173.345528,140.355642 C173.177848,140.240442 173.011448,140.099642 172.870648,139.958842 L138.86105,105.949243 C138.73305,105.821243 138.60505,105.680443 138.51545,105.526843 C137.91385,104.669243 137.78713,103.555643 138.18265,102.582843 C138.34905,102.198843 138.58073,101.853243 138.87385,101.584443 C139.43833,101.008443 140.21785,100.675643 141.04985,100.675643 L199.803127,100.675643 C200.851447,100.675643 201.838327,101.213243 202.413047,102.096443 L224.057846,136.118842 C224.660726,137.066042 224.697846,138.282042 224.160246,139.267642" id="Fill-37" fill="#8EA3BA" mask="url(#mask-2)"></path>
                <path d="M112.390267,105.949499 L78.3819485,139.959098 C77.7931485,140.547898 77.0110686,140.867898 76.1931486,140.867898 L29.8046707,140.867898 C28.6795507,140.867898 27.6427508,140.253498 27.0910708,139.267898 C26.5534708,138.282298 26.5931508,137.066298 27.1934708,136.119098 L48.8395498,102.096699 C49.4155498,101.213499 50.3998697,100.675899 51.4507497,100.675899 L110.202747,100.675899 C111.021947,100.675899 111.788667,100.995899 112.353147,101.546299 C112.660347,101.827899 112.902267,102.186299 113.068667,102.583099 C113.542267,103.735099 113.273467,105.066299 112.390267,105.949499" id="Fill-38" fill="#8EA3BA" mask="url(#mask-2)"></path>
                <path d="M181.280248,140.867642 L175.060728,140.867642 C174.445048,140.867642 173.856248,140.688442 173.345528,140.355642 L138.51545,105.526843 L125.66553,92.6756438 L112.390651,105.949243 L78.3810525,139.958842 C77.7922525,140.547642 77.0114526,140.867642 76.1922526,140.867642 L70.0495329,140.867642 C70.0495329,140.061242 70.3426529,139.254842 70.9583328,138.640442 L108.923131,100.675643 L123.48953,86.1092441 C124.69145,84.9060442 126.64985,84.9060442 127.85305,86.1092441 L142.42073,100.675643 L180.385528,138.640442 C180.998648,139.254842 181.293048,140.061242 181.280248,140.867642" id="Fill-39" fill="#8EA3BA" mask="url(#mask-2)"></path>
                <path d="M125.668986,122.317114 C135.916666,122.317114 144.222586,130.624314 144.222586,140.870714 C144.222586,151.117113 135.916666,159.424313 125.668986,159.424313 C115.422587,159.424313 107.115387,151.117113 107.115387,140.870714 C107.115387,130.624314 115.422587,122.317114 125.668986,122.317114" id="Fill-40" fill="#FFFFFF" mask="url(#mask-2)"></path>
                <path d="M125.668986,128.501434 C123.960186,128.501434 122.576507,129.885114 122.576507,131.593914 L122.576507,137.778874 L116.391547,137.778874 C114.682747,137.778874 113.300347,139.161274 113.300347,140.871354 C113.300347,142.580154 114.682747,143.963834 116.391547,143.963834 L125.668986,143.963834 C127.377786,143.963834 128.761466,142.580154 128.761466,140.871354 L128.761466,131.593914 C128.761466,129.885114 127.377786,128.501434 125.668986,128.501434" id="Fill-41" fill="#8EA3BA" mask="url(#mask-2)"></path>
                <polygon id="Fill-42" fill="#FFFFFF" mask="url(#mask-2)" points="79.2857565 208.900791 94.7468758 208.900791 94.7468758 190.347191 79.2857565 190.347191"></polygon>
                <path d="M82.3756763,196.534711 L91.6556759,196.534711 L91.6556759,193.437111 L82.3756763,193.437111 L82.3756763,196.534711 Z M82.3756763,205.814711 L91.6556759,205.814711 L91.6556759,202.717111 L82.3756763,202.717111 L82.3756763,205.814711 Z M94.7404758,187.254712 L79.2908765,187.254712 C77.5756765,187.254712 76.1932766,188.637112 76.1932766,190.352311 L76.1932766,208.899511 C76.1932766,210.614711 77.5756765,211.99711 79.2908765,211.99711 L94.7404758,211.99711 C96.4556757,211.99711 97.8380756,210.614711 97.8380756,208.899511 L97.8380756,190.352311 C97.8380756,188.637112 96.4556757,187.254712 94.7404758,187.254712 L94.7404758,187.254712 Z" id="Fill-43" fill="#8EA3BA" mask="url(#mask-2)"></path>
                <path d="M66.835197,190.352055 L66.835197,208.899255 L57.3247974,208.899255 C55.2780775,207.260855 53.2927976,205.545655 51.3727977,203.740855 L51.3727977,190.352055 L66.835197,190.352055 Z" id="Fill-44" fill="#FFFFFF" mask="url(#mask-2)"></path>
                <path d="M54.4575976,205.814711 L63.7375972,205.814711 L63.7375972,202.717111 L54.4575976,202.717111 L54.4575976,205.814711 Z M54.4575976,196.534711 L63.7375972,196.534711 L63.7375972,193.437111 L54.4575976,193.437111 L54.4575976,196.534711 Z M66.835197,187.254712 L51.3727977,187.254712 C49.6575978,187.254712 48.2751978,188.637112 48.2751978,190.352311 L48.2751978,200.733111 C49.2863978,201.757111 50.3244778,202.755511 51.3727977,203.741111 C53.2927976,205.545911 55.2780775,207.261111 57.3247974,208.899511 C58.6444774,209.974711 59.9871973,210.998711 61.3580773,211.99711 L66.835197,211.99711 C68.5375969,211.99711 69.9199969,210.614711 69.9199969,208.899511 L69.9199969,190.352311 C69.9199969,188.637112 68.5375969,187.254712 66.835197,187.254712 L66.835197,187.254712 Z" id="Fill-45" fill="#8EA3BA" mask="url(#mask-2)"></path>
                <path d="M199.879031,190.352055 L199.879031,202.166455 C198.867831,203.152055 197.843831,204.124855 196.794231,205.059255 L196.387191,205.403575 L195.936631,205.814455 C194.746231,206.876855 193.517431,207.913655 192.275831,208.899255 L184.416632,208.899255 L184.416632,190.352055 L199.879031,190.352055 Z" id="Fill-46" fill="#FFFFFF" mask="url(#mask-2)"></path>
                <path d="M187.513592,196.534711 L196.793591,196.534711 L196.793591,193.437111 L187.513592,193.437111 L187.513592,196.534711 Z M199.878391,187.254712 L184.415992,187.254712 C182.713592,187.254712 181.331192,188.637112 181.331192,190.352311 L181.331192,208.899511 C181.331192,210.614711 182.713592,211.99711 184.415992,211.99711 L188.244472,211.99711 C189.612792,210.998711 190.958071,209.974711 192.275191,208.899511 C193.518071,207.913911 194.746871,206.877111 195.935991,205.814711 L187.513592,205.814711 L187.513592,202.717111 L196.793591,202.717111 L196.793591,205.059511 C197.844471,204.125111 198.867191,203.152311 199.878391,202.166711 C200.929271,201.142711 201.964791,200.093111 202.975991,199.030711 L202.975991,190.352311 C202.975991,188.637112 201.593591,187.254712 199.878391,187.254712 L199.878391,187.254712 Z" id="Fill-47" fill="#8EA3BA" mask="url(#mask-2)"></path>
                <polygon id="Fill-48" fill="#FFFFFF" mask="url(#mask-2)" points="156.508153 208.900791 171.969272 208.900791 171.969272 190.347191 156.508153 190.347191"></polygon>
                <path d="M159.598073,196.534711 L168.878072,196.534711 L168.878072,193.437111 L159.598073,193.437111 L159.598073,196.534711 Z M159.598073,205.814711 L168.878072,205.814711 L168.878072,202.717111 L159.598073,202.717111 L159.598073,205.814711 Z M171.975672,187.254712 L156.513273,187.254712 C154.798073,187.254712 153.415673,188.637112 153.415673,190.352311 L153.415673,208.899511 C153.415673,210.614711 154.798073,211.99711 156.513273,211.99711 L171.975672,211.99711 C173.678072,211.99711 175.060472,210.614711 175.060472,208.899511 L175.060472,190.352311 C175.060472,188.637112 173.678072,187.254712 171.975672,187.254712 L171.975672,187.254712 Z" id="Fill-49" fill="#8EA3BA" mask="url(#mask-2)"></path>
                <path d="M196.705271,160.976441 L196.705271,162.512441 L187.425272,162.512441 L187.425272,160.976441 C187.425272,158.416441 189.510392,156.330041 192.070391,156.330041 C194.630391,156.330041 196.705271,158.416441 196.705271,160.976441" id="Fill-50" fill="#FFFFFF" mask="url(#mask-2)"></path>
                <path d="M187.425272,171.792312 L196.705271,171.792312 L196.705271,168.707512 L187.425272,168.707512 L187.425272,171.792312 Z M187.425272,171.792312 L196.705271,171.792312 L196.705271,168.707512 L187.425272,168.707512 L187.425272,171.792312 Z M187.425272,171.792312 L196.705271,171.792312 L196.705271,168.707512 L187.425272,168.707512 L187.425272,171.792312 Z M197.985271,163.792313 L186.145272,163.792313 L186.145272,160.976313 C186.145272,157.712313 188.806392,155.049913 192.070391,155.049913 C195.335671,155.049913 197.985271,157.712313 197.985271,160.976313 L197.985271,163.792313 Z M186.145272,173.072312 L197.985271,173.072312 L197.985271,167.427512 L186.145272,167.427512 L186.145272,173.072312 Z M191.982071,153.245113 C187.718392,153.245113 184.250872,156.701113 184.250872,160.976313 L184.250872,174.889912 L199.713271,174.889912 L199.713271,160.976313 C199.713271,156.701113 196.255991,153.245113 191.982071,153.245113 L191.982071,153.245113 Z M187.425272,171.792312 L196.705271,171.792312 L196.705271,168.707512 L187.425272,168.707512 L187.425272,171.792312 Z M187.425272,171.792312 L196.705271,171.792312 L196.705271,168.707512 L187.425272,168.707512 L187.425272,171.792312 Z" id="Fill-51" fill="#FFFFFF" mask="url(#mask-2)"></path>
                <path d="M196.705271,160.976441 L196.705271,162.512441 L187.425272,162.512441 L187.425272,160.976441 C187.425272,158.416441 189.510392,156.330041 192.070391,156.330041 C194.630391,156.330041 196.705271,158.416441 196.705271,160.976441" id="Fill-52" fill="#FFFFFF" mask="url(#mask-2)"></path>
                <path d="M187.425272,171.792312 L196.705271,171.792312 L196.705271,168.707512 L187.425272,168.707512 L187.425272,171.792312 Z M187.425272,171.792312 L196.705271,171.792312 L196.705271,168.707512 L187.425272,168.707512 L187.425272,171.792312 Z M187.425272,171.792312 L196.705271,171.792312 L196.705271,168.707512 L187.425272,168.707512 L187.425272,171.792312 Z M197.985271,163.792313 L186.145272,163.792313 L186.145272,160.976313 C186.145272,157.712313 188.806392,155.049913 192.070391,155.049913 C195.335671,155.049913 197.985271,157.712313 197.985271,160.976313 L197.985271,163.792313 Z M186.145272,173.072312 L197.985271,173.072312 L197.985271,167.427512 L186.145272,167.427512 L186.145272,173.072312 Z M191.982071,154.525113 C188.422392,154.525113 185.530872,157.417913 185.530872,160.976313 L185.530872,173.609912 L198.433271,173.609912 L198.433271,160.976313 C198.433271,157.417913 195.540471,154.525113 191.982071,154.525113 L191.982071,154.525113 Z M187.425272,171.792312 L196.705271,171.792312 L196.705271,168.707512 L187.425272,168.707512 L187.425272,171.792312 Z M187.425272,171.792312 L196.705271,171.792312 L196.705271,168.707512 L187.425272,168.707512 L187.425272,171.792312 Z" id="Fill-53" fill="#FFFFFF" mask="url(#mask-2)"></path>
                <path d="M186.145272,163.792057 L186.145272,160.976057 C186.145272,157.712057 188.806392,155.049657 192.070391,155.049657 C195.335671,155.049657 197.985271,157.712057 197.985271,160.976057 L197.985271,163.792057 L186.145272,163.792057 Z M186.145272,173.072056 L197.985271,173.072056 L197.985271,167.427256 L186.145272,167.427256 L186.145272,173.072056 Z M192.070391,151.427257 C186.810872,151.427257 182.522872,155.715257 182.522872,160.976057 L182.522872,174.889656 C182.522872,175.888056 183.342072,176.694456 184.340472,176.694456 L199.802871,176.694456 C200.799991,176.694456 201.606391,175.888056 201.606391,174.889656 L201.606391,160.976057 C201.606391,155.715257 197.331191,151.427257 192.070391,151.427257 L192.070391,151.427257 Z" id="Fill-54" fill="#8EA3BA" mask="url(#mask-2)"></path>
                <path d="M186.145272,163.792057 L186.145272,160.976057 C186.145272,157.712057 188.806392,155.049657 192.070391,155.049657 C195.335671,155.049657 197.985271,157.712057 197.985271,160.976057 L197.985271,163.792057 L186.145272,163.792057 Z M186.145272,173.072056 L197.985271,173.072056 L197.985271,167.427256 L186.145272,167.427256 L186.145272,173.072056 Z M192.070391,151.427257 C186.810872,151.427257 182.522872,155.715257 182.522872,160.976057 L182.522872,174.889656 C182.522872,175.888056 183.342072,176.694456 184.340472,176.694456 L199.802871,176.694456 C200.799991,176.694456 201.606391,175.888056 201.606391,174.889656 L201.606391,160.976057 C201.606391,155.715257 197.331191,151.427257 192.070391,151.427257 L192.070391,151.427257 Z" id="Fill-55" fill="#8EA3BA" mask="url(#mask-2)"></path>
                <path d="M168.96652,160.976441 L168.96652,162.512441 L159.686521,162.512441 L159.686521,160.976441 C159.686521,158.416441 161.772921,156.330041 164.332921,156.330041 C166.892921,156.330041 168.96652,158.416441 168.96652,160.976441" id="Fill-56" fill="#FFFFFF" mask="url(#mask-2)"></path>
                <path d="M159.686393,171.792312 L168.966392,171.792312 L168.966392,168.707512 L159.686393,168.707512 L159.686393,171.792312 Z M159.686393,171.792312 L168.966392,171.792312 L168.966392,168.707512 L159.686393,168.707512 L159.686393,171.792312 Z M159.686393,171.792312 L168.966392,171.792312 L168.966392,168.707512 L159.686393,168.707512 L159.686393,171.792312 Z M170.246392,163.792313 L158.406393,163.792313 L158.406393,160.976313 C158.406393,157.712313 161.068793,155.049913 164.332793,155.049913 C167.598073,155.049913 170.246392,157.712313 170.246392,160.976313 L170.246392,163.792313 Z M158.406393,173.072312 L170.246392,173.072312 L170.246392,167.427512 L158.406393,167.427512 L158.406393,173.072312 Z M164.244473,153.245113 C159.982073,153.245113 156.513273,156.701113 156.513273,160.976313 L156.513273,174.889912 L171.975672,174.889912 L171.975672,160.976313 C171.975672,156.701113 168.518392,153.245113 164.244473,153.245113 L164.244473,153.245113 Z M159.686393,171.792312 L168.966392,171.792312 L168.966392,168.707512 L159.686393,168.707512 L159.686393,171.792312 Z M159.686393,171.792312 L168.966392,171.792312 L168.966392,168.707512 L159.686393,168.707512 L159.686393,171.792312 Z" id="Fill-57" fill="#FFFFFF" mask="url(#mask-2)"></path>
                <path d="M168.96652,160.976441 L168.96652,162.512441 L159.686521,162.512441 L159.686521,160.976441 C159.686521,158.416441 161.772921,156.330041 164.332921,156.330041 C166.892921,156.330041 168.96652,158.416441 168.96652,160.976441" id="Fill-58" fill="#FFFFFF" mask="url(#mask-2)"></path>
                <path d="M159.686393,171.792312 L168.966392,171.792312 L168.966392,168.707512 L159.686393,168.707512 L159.686393,171.792312 Z M159.686393,171.792312 L168.966392,171.792312 L168.966392,168.707512 L159.686393,168.707512 L159.686393,171.792312 Z M159.686393,171.792312 L168.966392,171.792312 L168.966392,168.707512 L159.686393,168.707512 L159.686393,171.792312 Z M170.246392,163.792313 L158.406393,163.792313 L158.406393,160.976313 C158.406393,157.712313 161.068793,155.049913 164.332793,155.049913 C167.598073,155.049913 170.246392,157.712313 170.246392,160.976313 L170.246392,163.792313 Z M158.406393,173.072312 L170.246392,173.072312 L170.246392,167.427512 L158.406393,167.427512 L158.406393,173.072312 Z M164.244473,154.525113 C160.684793,154.525113 157.793273,157.417913 157.793273,160.976313 L157.793273,173.609912 L170.695672,173.609912 L170.695672,160.976313 C170.695672,157.417913 167.802872,154.525113 164.244473,154.525113 L164.244473,154.525113 Z M159.686393,171.792312 L168.966392,171.792312 L168.966392,168.707512 L159.686393,168.707512 L159.686393,171.792312 Z M159.686393,171.792312 L168.966392,171.792312 L168.966392,168.707512 L159.686393,168.707512 L159.686393,171.792312 Z" id="Fill-59" fill="#FFFFFF" mask="url(#mask-2)"></path>
                <path d="M158.406521,163.792057 L158.406521,160.976057 C158.406521,157.712057 161.068921,155.049657 164.332921,155.049657 C167.598201,155.049657 170.24652,157.712057 170.24652,160.976057 L170.24652,163.792057 L158.406521,163.792057 Z M158.406521,173.072056 L170.24652,173.072056 L170.24652,167.427256 L158.406521,167.427256 L158.406521,173.072056 Z M164.332921,151.427257 C159.073401,151.427257 154.784121,155.715257 154.784121,160.976057 L154.784121,174.889656 C154.784121,175.888056 155.604601,176.694456 156.603001,176.694456 L172.06412,176.694456 C173.06252,176.694456 173.86892,175.888056 173.86892,174.889656 L173.86892,160.976057 C173.86892,155.715257 169.59372,151.427257 164.332921,151.427257 L164.332921,151.427257 Z" id="Fill-60" fill="#8EA3BA" mask="url(#mask-2)"></path>
                <path d="M158.406521,163.792057 L158.406521,160.976057 C158.406521,157.712057 161.068921,155.049657 164.332921,155.049657 C167.598201,155.049657 170.24652,157.712057 170.24652,160.976057 L170.24652,163.792057 L158.406521,163.792057 Z M158.406521,173.072056 L170.24652,173.072056 L170.24652,167.427256 L158.406521,167.427256 L158.406521,173.072056 Z M164.332921,151.427257 C159.073401,151.427257 154.784121,155.715257 154.784121,160.976057 L154.784121,174.889656 C154.784121,175.888056 155.604601,176.694456 156.603001,176.694456 L172.06412,176.694456 C173.06252,176.694456 173.86892,175.888056 173.86892,174.889656 L173.86892,160.976057 C173.86892,155.715257 169.59372,151.427257 164.332921,151.427257 L164.332921,151.427257 Z" id="Fill-61" fill="#8EA3BA" mask="url(#mask-2)"></path>
                <path d="M91.4890199,160.976441 L91.4890199,162.512441 L82.2090203,162.512441 L82.2090203,160.976441 C82.2090203,158.416441 84.2954202,156.330041 86.8554201,156.330041 C89.41542,156.330041 91.4890199,158.416441 91.4890199,160.976441" id="Fill-62" fill="#FFFFFF" mask="url(#mask-2)"></path>
                <path d="M82.2092763,171.792312 L91.4892759,171.792312 L91.4892759,168.707512 L82.2092763,168.707512 L82.2092763,171.792312 Z M82.2092763,171.792312 L91.4892759,171.792312 L91.4892759,168.707512 L82.2092763,168.707512 L82.2092763,171.792312 Z M82.2092763,171.792312 L91.4892759,171.792312 L91.4892759,168.707512 L82.2092763,168.707512 L82.2092763,171.792312 Z M92.7692759,163.792313 L80.9292764,163.792313 L80.9292764,160.976313 C80.9292764,157.712313 83.5916763,155.049913 86.8556761,155.049913 C90.118396,155.049913 92.7692759,157.712313 92.7692759,160.976313 L92.7692759,163.792313 Z M80.9292764,173.072312 L92.7692759,173.072312 L92.7692759,167.427512 L80.9292764,167.427512 L80.9292764,173.072312 Z M86.7647961,153.245113 C82.5023963,153.245113 79.0335965,156.701113 79.0335965,160.976313 L79.0335965,174.889912 L94.4959958,174.889912 L94.4959958,160.976313 C94.4959958,156.701113 91.0399959,153.245113 86.7647961,153.245113 L86.7647961,153.245113 Z M82.2092763,171.792312 L91.4892759,171.792312 L91.4892759,168.707512 L82.2092763,168.707512 L82.2092763,171.792312 Z M82.2092763,171.792312 L91.4892759,171.792312 L91.4892759,168.707512 L82.2092763,168.707512 L82.2092763,171.792312 Z" id="Fill-63" fill="#FFFFFF" mask="url(#mask-2)"></path>
                <path d="M91.4890199,160.976441 L91.4890199,162.512441 L82.2090203,162.512441 L82.2090203,160.976441 C82.2090203,158.416441 84.2954202,156.330041 86.8554201,156.330041 C89.41542,156.330041 91.4890199,158.416441 91.4890199,160.976441" id="Fill-64" fill="#FFFFFF" mask="url(#mask-2)"></path>
                <path d="M82.2092763,171.792312 L91.4892759,171.792312 L91.4892759,168.707512 L82.2092763,168.707512 L82.2092763,171.792312 Z M82.2092763,171.792312 L91.4892759,171.792312 L91.4892759,168.707512 L82.2092763,168.707512 L82.2092763,171.792312 Z M82.2092763,171.792312 L91.4892759,171.792312 L91.4892759,168.707512 L82.2092763,168.707512 L82.2092763,171.792312 Z M92.7692759,163.792313 L80.9292764,163.792313 L80.9292764,160.976313 C80.9292764,157.712313 83.5916763,155.049913 86.8556761,155.049913 C90.118396,155.049913 92.7692759,157.712313 92.7692759,160.976313 L92.7692759,163.792313 Z M80.9292764,173.072312 L92.7692759,173.072312 L92.7692759,167.427512 L80.9292764,167.427512 L80.9292764,173.072312 Z M86.7647961,154.525113 C83.2063963,154.525113 80.3135964,157.417913 80.3135964,160.976313 L80.3135964,173.609912 L93.2159958,173.609912 L93.2159958,160.976313 C93.2159958,157.417913 90.324476,154.525113 86.7647961,154.525113 L86.7647961,154.525113 Z M82.2092763,171.792312 L91.4892759,171.792312 L91.4892759,168.707512 L82.2092763,168.707512 L82.2092763,171.792312 Z M82.2092763,171.792312 L91.4892759,171.792312 L91.4892759,168.707512 L82.2092763,168.707512 L82.2092763,171.792312 Z" id="Fill-65" fill="#FFFFFF" mask="url(#mask-2)"></path>
                <path d="M80.9290204,163.792057 L80.9290204,160.976057 C80.9290204,157.712057 83.5914203,155.049657 86.8554201,155.049657 C90.11942,155.049657 92.7690199,157.712057 92.7690199,160.976057 L92.7690199,163.792057 L80.9290204,163.792057 Z M80.9290204,173.072056 L92.7690199,173.072056 L92.7690199,167.427256 L80.9290204,167.427256 L80.9290204,173.072056 Z M86.8554201,151.427257 C81.5946204,151.427257 77.3066205,155.715257 77.3066205,160.976057 L77.3066205,174.889656 C77.3066205,175.888056 78.1258205,176.694456 79.1242205,176.694456 L94.5866198,176.694456 C95.5837397,176.694456 96.3914197,175.888056 96.3914197,174.889656 L96.3914197,160.976057 C96.3914197,155.715257 92.1149399,151.427257 86.8554201,151.427257 L86.8554201,151.427257 Z" id="Fill-66" fill="#8EA3BA" mask="url(#mask-2)"></path>
                <path d="M80.9290204,163.792057 L80.9290204,160.976057 C80.9290204,157.712057 83.5914203,155.049657 86.8554201,155.049657 C90.11942,155.049657 92.7690199,157.712057 92.7690199,160.976057 L92.7690199,163.792057 L80.9290204,163.792057 Z M80.9290204,173.072056 L92.7690199,173.072056 L92.7690199,167.427256 L80.9290204,167.427256 L80.9290204,173.072056 Z M86.8554201,151.427257 C81.5946204,151.427257 77.3066205,155.715257 77.3066205,160.976057 L77.3066205,174.889656 C77.3066205,175.888056 78.1258205,176.694456 79.1242205,176.694456 L94.5866198,176.694456 C95.5837397,176.694456 96.3914197,175.888056 96.3914197,174.889656 L96.3914197,160.976057 C96.3914197,155.715257 92.1149399,151.427257 86.8554201,151.427257 L86.8554201,151.427257 Z" id="Fill-67" fill="#8EA3BA" mask="url(#mask-2)"></path>
                <path d="M63.7452772,160.976441 L63.7452772,162.512441 L54.4652776,162.512441 L54.4652776,160.976441 C54.4652776,158.416441 56.5503975,156.330041 59.1103974,156.330041 C61.6703972,156.330041 63.7452772,158.416441 63.7452772,160.976441" id="Fill-68" fill="#FFFFFF" mask="url(#mask-2)"></path>
                <path d="M54.4652776,171.792312 L63.7452772,171.792312 L63.7452772,168.707512 L54.4652776,168.707512 L54.4652776,171.792312 Z M54.4652776,171.792312 L63.7452772,171.792312 L63.7452772,168.707512 L54.4652776,168.707512 L54.4652776,171.792312 Z M54.4652776,171.792312 L63.7452772,171.792312 L63.7452772,168.707512 L54.4652776,168.707512 L54.4652776,171.792312 Z M65.0252771,163.792313 L53.1852776,163.792313 L53.1852776,160.976313 C53.1852776,157.712313 55.8463975,155.049913 59.1103974,155.049913 C62.3756772,155.049913 65.0252771,157.712313 65.0252771,160.976313 L65.0252771,163.792313 Z M53.1852776,173.072312 L65.0252771,173.072312 L65.0252771,167.427512 L53.1852776,167.427512 L53.1852776,173.072312 Z M59.0220774,153.245113 C54.7583976,153.245113 51.2908777,156.701113 51.2908777,160.976313 L51.2908777,174.889912 L66.753277,174.889912 L66.753277,160.976313 C66.753277,156.701113 63.2959972,153.245113 59.0220774,153.245113 L59.0220774,153.245113 Z M54.4652776,171.792312 L63.7452772,171.792312 L63.7452772,168.707512 L54.4652776,168.707512 L54.4652776,171.792312 Z M54.4652776,171.792312 L63.7452772,171.792312 L63.7452772,168.707512 L54.4652776,168.707512 L54.4652776,171.792312 Z" id="Fill-69" fill="#FFFFFF" mask="url(#mask-2)"></path>
                <path d="M63.7452772,160.976441 L63.7452772,162.512441 L54.4652776,162.512441 L54.4652776,160.976441 C54.4652776,158.416441 56.5503975,156.330041 59.1103974,156.330041 C61.6703972,156.330041 63.7452772,158.416441 63.7452772,160.976441" id="Fill-70" fill="#FFFFFF" mask="url(#mask-2)"></path>
                <path d="M54.4652776,171.792312 L63.7452772,171.792312 L63.7452772,168.707512 L54.4652776,168.707512 L54.4652776,171.792312 Z M54.4652776,171.792312 L63.7452772,171.792312 L63.7452772,168.707512 L54.4652776,168.707512 L54.4652776,171.792312 Z M54.4652776,171.792312 L63.7452772,171.792312 L63.7452772,168.707512 L54.4652776,168.707512 L54.4652776,171.792312 Z M65.0252771,163.792313 L53.1852776,163.792313 L53.1852776,160.976313 C53.1852776,157.712313 55.8463975,155.049913 59.1103974,155.049913 C62.3756772,155.049913 65.0252771,157.712313 65.0252771,160.976313 L65.0252771,163.792313 Z M53.1852776,173.072312 L65.0252771,173.072312 L65.0252771,167.427512 L53.1852776,167.427512 L53.1852776,173.072312 Z M59.0220774,154.525113 C55.4623975,154.525113 52.5708776,157.417913 52.5708776,160.976313 L52.5708776,173.609912 L65.4732771,173.609912 L65.4732771,160.976313 C65.4732771,157.417913 62.5804772,154.525113 59.0220774,154.525113 L59.0220774,154.525113 Z M54.4652776,171.792312 L63.7452772,171.792312 L63.7452772,168.707512 L54.4652776,168.707512 L54.4652776,171.792312 Z M54.4652776,171.792312 L63.7452772,171.792312 L63.7452772,168.707512 L54.4652776,168.707512 L54.4652776,171.792312 Z" id="Fill-71" fill="#FFFFFF" mask="url(#mask-2)"></path>
                <path d="M53.1852776,163.792057 L53.1852776,160.976057 C53.1852776,157.712057 55.8463975,155.049657 59.1103974,155.049657 C62.3756772,155.049657 65.0252771,157.712057 65.0252771,160.976057 L65.0252771,163.792057 L53.1852776,163.792057 Z M53.1852776,173.072056 L65.0252771,173.072056 L65.0252771,167.427256 L53.1852776,167.427256 L53.1852776,173.072056 Z M59.1103974,151.427257 C53.8508776,151.427257 49.5628778,155.715257 49.5628778,160.976057 L49.5628778,174.889656 C49.5628778,175.888056 50.3820777,176.694456 51.3804777,176.694456 L66.842877,176.694456 C67.839997,176.694456 68.6463969,175.888056 68.6463969,174.889656 L68.6463969,160.976057 C68.6463969,155.715257 64.3711971,151.427257 59.1103974,151.427257 L59.1103974,151.427257 Z" id="Fill-72" fill="#8EA3BA" mask="url(#mask-2)"></path>
                <path d="M53.1852776,163.792057 L53.1852776,160.976057 C53.1852776,157.712057 55.8463975,155.049657 59.1103974,155.049657 C62.3756772,155.049657 65.0252771,157.712057 65.0252771,160.976057 L65.0252771,163.792057 L53.1852776,163.792057 Z M53.1852776,173.072056 L65.0252771,173.072056 L65.0252771,167.427256 L53.1852776,167.427256 L53.1852776,173.072056 Z M59.1103974,151.427257 C53.8508776,151.427257 49.5628778,155.715257 49.5628778,160.976057 L49.5628778,174.889656 C49.5628778,175.888056 50.3820777,176.694456 51.3804777,176.694456 L66.842877,176.694456 C67.839997,176.694456 68.6463969,175.888056 68.6463969,174.889656 L68.6463969,160.976057 C68.6463969,155.715257 64.3711971,151.427257 59.1103974,151.427257 L59.1103974,151.427257 Z" id="Fill-73" fill="#8EA3BA" mask="url(#mask-2)"></path>
                <path d="M125.665274,156.330169 C117.140475,156.330169 110.202875,149.392569 110.202875,140.86777 C110.202875,132.34297 117.140475,125.40537 125.665274,125.40537 C134.188794,125.40537 141.126394,132.34297 141.126394,140.86777 C141.126394,149.392569 134.188794,156.330169 125.665274,156.330169 M125.665274,119.222971 C113.735675,119.222971 104.020475,128.93817 104.020475,140.86777 C104.020475,152.810169 113.735675,162.512569 125.665274,162.512569 C137.606394,162.512569 147.308793,152.810169 147.308793,140.86777 C147.308793,128.93817 137.606394,119.222971 125.665274,119.222971" id="Fill-74" fill="#8EA3BA" mask="url(#mask-2)"></path>
                <path d="M110.202747,181.072056 C110.202747,179.369656 111.597947,177.974456 113.300347,177.974456 L138.042746,177.974456 C139.745146,177.974456 141.126266,179.369656 141.126266,181.072056 L141.126266,184.156856 L110.202747,184.156856 L110.202747,181.072056 Z M138.042746,171.792056 L113.300347,171.792056 C108.180347,171.792056 104.020347,175.952056 104.020347,181.072056 L104.020347,224.361654 C104.020347,226.076854 105.402747,227.459254 107.117947,227.459254 C108.820347,227.459254 110.202747,226.076854 110.202747,224.361654 L110.202747,190.352055 L122.490747,190.352055 L122.490747,224.361654 L128.673146,224.361654 L128.673146,190.352055 L141.126266,190.352055 L141.126266,224.361654 C141.126266,226.076854 142.508666,227.459254 144.225146,227.459254 C145.926265,227.459254 147.308665,226.076854 147.308665,224.361654 L147.308665,181.072056 C147.308665,175.952056 143.148666,171.792056 138.042746,171.792056 L138.042746,171.792056 Z" id="Fill-75" fill="#8EA3BA" mask="url(#mask-2)"></path>
                <path d="M173.075192,221.264566 C170.873592,222.378166 168.633592,223.414966 166.342393,224.362166 C163.615993,225.514166 160.826873,226.550966 157.985273,227.459766 L91.6287959,227.459766 C88.775676,226.550966 85.9852762,225.514166 83.2575963,224.362166 C80.9663964,223.414966 78.7263965,222.378166 76.5247966,221.264566 L173.075192,221.264566 Z" id="Fill-76" fill="#8EA3BA" mask="url(#mask-2)"></path>
            </g>
        </g>
    </g>
</svg>